ply
format ascii 1.0
comment VCGLIB generated
element vertex 146
property float x
property float y
property float z
property float nx
property float ny
property float nz
property float texture_u
property float texture_v
element face 288
property list uchar int vertex_indices
end_header
5.420927e-07 1 0 1.00385e-06 1 7.262559e-07 0.500001 1.000000
0.050324 0.9933743 0 0.2838208 0.9586553 -0.02063524 0.629409 0.993374
0.04358217 0.9933743 -0.02516231 0.2354785 0.9586554 -0.1597804 0.612073 0.993374
0.02516168 0.9933743 -0.04358289 0.1240394 0.9586557 -0.2561125 0.564704 0.993374
5.420927e-07 0.9933743 -0.05032463 -0.02063419 0.9586556 -0.2838199 0.500001 0.993374
-0.02516177 0.9933743 -0.04358289 -0.1597801 0.9586557 -0.2354775 0.435296 0.993374
-0.04358226 0.9933743 -0.02516231 -0.2561127 0.9586559 -0.1240371 0.387927 0.993374
-0.050324 0.9933743 0 -0.2838201 0.9586555 0.02063523 0.370591 0.993374
-0.04358226 0.9933743 0.02516231 -0.2354742 0.9586563 0.1597813 0.387927 0.993374
-0.02516177 0.9933743 0.04358163 -0.1240387 0.9586554 0.2561136 0.435296 0.993374
5.420927e-07 0.9933743 0.05032454 0.02063669 0.9586559 0.2838186 0.500001 0.993374
0.02516168 0.9933743 0.04358163 0.1597801 0.9586552 0.2354792 0.564704 0.993374
0.04358217 0.9933743 0.02516231 0.2561117 0.9586558 0.1240396 0.612073 0.993374
0.09721908 0.9739496 0 0.4995284 0.8662397 -0.01000747 0.750001 0.973950
0.08419386 0.9739496 -0.0486099 0.4276023 0.8662394 -0.2584293 0.716506 0.973950
0.04860918 0.9739496 -0.08419449 0.2411011 0.8662396 -0.4376063 0.625000 0.973950
5.420927e-07 0.9739496 -0.09721971 -0.01000564 0.8662402 -0.4995275 0.500001 0.973950
-0.04860927 0.9739496 -0.08419449 -0.2584311 0.8662395 -0.4276009 0.375000 0.973950
-0.08419386 0.9739496 -0.0486099 -0.4376079 0.8662393 -0.2410991 0.283494 0.973950
-0.09721908 0.9739496 0 -0.4995263 0.866241 0.01000556 0.249999 0.973950
-0.08419386 0.9739496 0.04860981 -0.4275986 0.8662415 0.2584283 0.283494 0.973950
-0.04860927 0.9739496 0.0841944 -0.2410942 0.8662409 0.4376076 0.375000 0.973950
-6.324415e-07 0.9739496 0.09721845 0.010004 0.8662398 0.4995283 0.499999 0.973950
0.04860918 0.9739496 0.0841944 0.2584297 0.86624 0.4276008 0.625000 0.973950
0.08419386 0.9739496 0.04860981 0.4376061 0.8662398 0.2411008 0.716506 0.973950
0.1374884 0.9430496 0 0.7066642 0.7075036 -0.008030191 0.853554 0.943050
0.1190679 0.9430496 -0.06874394 0.607975 0.7075016 -0.3602887 0.806186 0.943050
0.06874449 0.9430496 -0.1190686 0.3463829 0.7074999 -0.6160056 0.676778 0.943050
5.420927e-07 0.9430496 -0.1374891 -0.008029947 0.7075003 -0.7066675 0.500001 0.943050
-0.06874458 0.9430496 -0.1190686 -0.3602903 0.7075014 -0.6079744 0.323222 0.943050
-0.1190679 0.9430496 -0.06874394 -0.6160057 0.7075023 -0.3463778 0.193815 0.943050
-0.1374885 0.9430496 0 -0.7066656 0.7075022 0.008027656 0.146446 0.943050
-0.1190691 0.9430496 0.06874394 -0.6079742 0.7075024 0.3602885 0.193812 0.943050
-0.06874458 0.9430496 0.1190685 -0.3463757 0.7075011 0.6160082 0.323222 0.943050
-6.324415e-07 0.9430496 0.1374879 0.008029985 0.7074993 0.7066685 0.499999 0.943050
0.06874449 0.9430496 0.1190685 0.3602849 0.7075022 0.6079766 0.676778 0.943050
0.1190679 0.9430496 0.06874394 0.6160057 0.7075022 0.3463779 0.806186 0.943050
0.1683883 0.9027803 0 0.8657565 0.5004345 -0.005583383 0.933014 0.902780
0.1458289 0.9027803 -0.08419449 0.7469742 0.5004362 -0.4377136 0.875002 0.902780
0.08419386 0.9027803 -0.1458284 0.4280443 0.5004328 -0.7525591 0.716506 0.902780
5.420927e-07 0.9027803 -0.1683889 -0.005580898 0.5004314 -0.8657582 0.500001 0.902780
-0.08419386 0.9027803 -0.1458284 -0.4377148 0.500433 -0.7469757 0.283494 0.902780
-0.145829 0.9027803 -0.08419449 -0.7525592 0.5004346 -0.4280419 0.124998 0.902780
-0.1683884 0.9027803 0 -0.8657573 0.500433 0.005582574 0.066986 0.902780
-0.145829 0.9027803 0.0841944 -0.7469769 0.5004308 0.4377152 0.124998 0.902780
-0.08419386 0.9027803 0.1458284 -0.4280418 0.50043 0.7525623 0.283494 0.902780
-6.324415e-07 0.9027803 0.1683877 0.005582625 0.5004301 0.865759 0.499999 0.902780
0.08419386 0.9027803 0.1458284 0.4377114 0.5004308 0.7469792 0.716506 0.902780
0.1458289 0.9027803 0.0841944 0.7525592 0.5004337 0.428043 0.875002 0.902780
0.1878131 0.8558864 0 0.9658481 0.2590936 -0.002855102 0.982965 0.855886
0.1626507 0.8558864 -0.09390626 0.8350214 0.2590978 -0.4853943 0.918260 0.855886
0.0939068 0.8558864 -0.1626514 0.4804486 0.259101 -0.8378758 0.741483 0.855886
5.420927e-07 0.8558864 -0.1878125 -0.002852807 0.259099 -0.9658466 0.500001 0.855886
-0.09390689 0.8558864 -0.1626514 -0.4853951 0.2591004 -0.8350201 0.258517 0.855886
-0.1626508 0.8558864 -0.09390626 -0.8378767 0.2590975 -0.4804489 0.081740 0.855886
-0.1878131 0.8558864 0 -0.9658481 0.259093 0.002856012 0.017035 0.855886
-0.1626508 0.8558864 0.09390626 -0.8350211 0.2590933 0.4853971 0.081740 0.855886
-0.09390689 0.8558864 0.1626501 -0.4804508 0.2590972 0.8378757 0.258517 0.855886
-6.324415e-07 0.8558864 0.1878124 0.002854724 0.2590997 0.9658464 0.499999 0.855886
0.0939068 0.8558864 0.1626501 0.4853956 0.2590957 0.8350213 0.741483 0.855886
0.1626507 0.8558864 0.09390626 0.8378763 0.2590927 0.4804521 0.918260 0.855886
0.1944375 0.8055617 0 0.997858 0.06541616 -0.0003555637 1.000000 0.805562
0.1683883 0.8055617 -0.09721971 0.8639928 0.06541876 -0.4992363 0.933014 0.805562
0.09721908 0.8055617 -0.1683889 0.4986186 0.06542154 -0.8643492 0.750001 0.805562
5.420927e-07 0.8055617 -0.1944382 -0.0003565373 0.06542139 -0.9978577 0.500001 0.805562
-0.09721908 0.8055617 -0.1683889 -0.4992352 0.0654214 -0.8639932 0.249999 0.805562
-0.1683884 0.8055617 -0.09721971 -0.8643508 0.06542009 -0.4986161 0.066986 0.805562
-0.1944376 0.8055617 0 -0.997858 0.06541713 0.000358114 0.000000 0.805562
-0.1683884 0.8055617 0.09721845 -0.8639921 0.06541644 0.4992378 0.066986 0.805562
-0.09721908 0.8055617 0.1683877 -0.4986224 0.06541871 0.8643472 0.249999 0.805562
-6.324415e-07 0.8055617 0.1944382 0.0003563323 0.06542243 0.9978576 0.499999 0.805562
0.09721908 0.8055617 0.1683877 0.4992399 0.06542065 0.8639905 0.750001 0.805562
0.1683883 0.8055617 0.09721845 0.8643497 0.06541675 0.4986184 0.933014 0.805562
0.1944375 0.1944382 0 0.997858 -0.06541675 0.0003580212 1.000000 0.194438
0.1683883 0.1944382 -0.09721971 0.8643509 -0.0654202 -0.4986159 0.933014 0.194438
0.09721908 0.1944382 -0.1683889 0.4992366 -0.06542162 -0.8639924 0.750001 0.194438
5.420927e-07 0.1944382 -0.1944382 0.0003593914 -0.06542141 -0.9978577 0.500001 0.194438
-0.09721908 0.1944382 -0.1683889 -0.4986172 -0.06542136 -0.86435 0.249999 0.194438
-0.1683884 0.1944382 -0.09721971 -0.8639928 -0.065419 -0.4992363 0.066986 0.194438
-0.1944376 0.1944382 0 -0.997858 -0.06541666 -0.000355641 0.000000 0.194438
-0.1683884 0.1944382 0.09721845 -0.8643496 -0.06541675 0.4986185 0.066986 0.194438
-0.09721908 0.1944382 0.1683877 -0.4992411 -0.06542048 0.8639899 0.249999 0.194438
-6.324415e-07 0.1944382 0.1944382 -0.0003595264 -0.06542253 0.9978576 0.499999 0.194438
0.09721908 0.1944382 0.1683877 0.4986212 -0.06541906 0.8643479 0.750001 0.194438
0.1683883 0.1944382 0.09721845 0.8639922 -0.06541631 0.4992377 0.933014 0.194438
0.1878131 0.1441136 0 0.9658493 -0.2590887 0.002855866 0.982965 0.144114
0.1626507 0.1441136 -0.09390626 0.8378776 -0.259093 -0.4804497 0.918260 0.144114
0.0939068 0.1441136 -0.1626514 0.4853969 -0.2590961 -0.8350204 0.741483 0.144114
5.420927e-07 0.1441136 -0.1878125 0.002855619 -0.2590948 -0.9658477 0.500001 0.144114
-0.09390689 0.1441136 -0.1626514 -0.4804478 -0.2590969 -0.8378775 0.258517 0.144114
-0.1626508 0.1441136 -0.09390626 -0.8350226 -0.2590933 -0.4853947 0.081740 0.144114
-0.1878131 0.1441136 0 -0.9658492 -0.2590893 -0.00285495 0.017035 0.144114
-0.1626508 0.1441136 0.09390626 -0.8378773 -0.2590886 0.4804527 0.081740 0.144114
-0.09390689 0.1441136 0.1626501 -0.4853972 -0.2590913 0.8350217 0.258517 0.144114
-6.324415e-07 0.1441136 0.1878124 -0.002857762 -0.2590953 0.9658476 0.499999 0.144114
0.0939068 0.1441136 0.1626501 0.4804504 -0.2590929 0.8378773 0.741483 0.144114
0.1626507 0.1441136 0.09390626 0.8350222 -0.2590892 0.4853975 0.918260 0.144114
0.1683883 0.09721851 0 0.8657587 -0.5004305 0.005583643 0.933014 0.097219
0.1458289 0.09721851 -0.08419449 0.7525613 -0.5004306 -0.428043 0.875002 0.097219
0.08419386 0.09721851 -0.1458284 0.4377176 -0.5004287 -0.7469769 0.716506 0.097219
5.420927e-07 0.09721851 -0.1683889 0.005584013 -0.5004274 -0.8657606 0.500001 0.097219
-0.08419386 0.09721851 -0.1458284 -0.428044 -0.5004291 -0.7525617 0.283494 0.097219
-0.145829 0.09721851 -0.08419449 -0.7469759 -0.5004325 -0.437715 0.124998 0.097219
-0.1683884 0.09721851 0 -0.8657603 -0.5004278 -0.0055851 0.066986 0.097219
-0.145829 0.09721851 0.0841944 -0.7525626 -0.5004266 0.4280454 0.124998 0.097219
-0.08419386 0.09721851 0.1458284 -0.4377137 -0.5004256 0.7469813 0.283494 0.097219
-6.324415e-07 0.09721851 0.1683877 -0.00558599 -0.5004261 0.8657612 0.499999 0.097219
0.08419386 0.09721851 0.1458284 0.428042 -0.5004281 0.7525635 0.716506 0.097219
0.1458289 0.09721851 0.0841944 0.7469765 -0.5004299 0.4377169 0.875002 0.097219
0.1374884 0.05694911 0 0.706664 -0.7075037 0.008030375 0.853554 0.056949
0.1190679 0.05694911 -0.06874394 0.6160056 -0.7075024 -0.3463777 0.806186 0.056949
0.06874449 0.05694911 -0.1190686 0.3602916 -0.7075014 -0.6079735 0.676778 0.056949
5.420927e-07 0.05694911 -0.1374891 0.008033062 -0.7075006 -0.7066671 0.500001 0.056949
-0.06874458 0.05694911 -0.1190686 -0.3463814 -0.7075004 -0.6160058 0.323222 0.056949
-0.1190679 0.05694911 -0.06874394 -0.6079745 -0.707502 -0.3602887 0.193815 0.056949
-0.1374885 0.05694911 0 -0.7066633 -0.7075044 -0.008033172 0.146446 0.056949
-0.1190691 0.05694911 0.06874394 -0.616006 -0.7075027 0.3463765 0.193812 0.056949
-0.06874458 0.05694911 0.1190685 -0.3602853 -0.707501 0.6079777 0.323222 0.056949
-6.324415e-07 0.05694911 0.1374879 -0.00803325 -0.7074996 0.7066681 0.499999 0.056949
0.06874449 0.05694911 0.1190685 0.3463757 -0.7075016 0.6160077 0.676778 0.056949
0.1190679 0.05694911 0.06874394 0.6079746 -0.7075019 0.3602887 0.806186 0.056949
0.09721908 0.02604929 0 0.4995187 -0.8662453 0.01000842 0.750001 0.026049
0.08419386 0.02604929 -0.0486099 0.4376 -0.8662449 -0.2410938 0.716506 0.026049
0.04860918 0.02604929 -0.08419449 0.2584283 -0.866245 -0.4275916 0.625000 0.026049
5.420927e-07 0.02604929 -0.09721971 0.01000977 -0.8662458 -0.4995178 0.500001 0.026049
-0.04860927 0.02604929 -0.08419449 -0.2410942 -0.8662454 -0.4375987 0.375000 0.026049
-0.08419386 0.02604929 -0.0486099 -0.4275939 -0.8662448 -0.2584249 0.283494 0.026049
-0.09721908 0.02604929 0 -0.4995179 -0.8662457 -0.0100095 0.249999 0.026049
-0.08419386 0.02604929 0.04860981 -0.437596 -0.8662471 0.2410928 0.283494 0.026049
-0.04860927 0.02604929 0.0841944 -0.2584238 -0.8662466 0.4275909 0.375000 0.026049
-6.324415e-07 0.02604929 0.09721845 -0.01000554 -0.8662451 0.4995192 0.499999 0.026049
0.04860918 0.02604929 0.0841944 0.2410887 -0.8662459 0.4376006 0.625000 0.026049
0.08419386 0.02604929 0.04860981 0.4275922 -0.8662454 0.2584256 0.716506 0.026049
0.050324 0.006625712 0 0.2838088 -0.9586589 0.02063425 0.629409 0.006626
0.04358217 0.006625712 -0.02516231 0.2561023 -0.9586592 -0.1240327 0.612073 0.006626
0.02516168 0.006625712 -0.04358289 0.1597742 -0.9586591 -0.2354675 0.564704 0.006626
5.420927e-07 0.006625712 -0.05032463 0.02063582 -0.9586593 -0.2838074 0.500001 0.006626
-0.02516177 0.006625712 -0.04358289 -0.1240322 -0.9586595 -0.2561015 0.435296 0.006626
-0.04358226 0.006625712 -0.02516231 -0.235468 -0.9586592 -0.1597728 0.387927 0.006626
-0.050324 0.006625712 0 -0.283808 -0.9586591 -0.0206341 0.370591 0.006626
-0.04358226 0.006625712 0.02516231 -0.2561001 -0.9586597 0.1240336 0.387927 0.006626
-0.02516177 0.006625712 0.04358163 -0.1597723 -0.9586591 0.2354688 0.435296 0.006626
5.420927e-07 0.006625712 0.05032454 -0.02063401 -0.9586595 0.2838066 0.500001 0.006626
0.02516168 0.006625712 0.04358163 0.1240349 -0.9586585 0.256104 0.564704 0.006626
0.04358217 0.006625712 0.02516231 0.2354649 -0.9586596 0.159775 0.612073 0.006626
5.420927e-07 0 0 1.008863e-06 -1 7.300156e-07 0.500001 0.000000
3 0 1 2 
3 0 2 3 
3 0 3 4 
3 0 4 5 
3 0 5 6 
3 0 6 7 
3 0 7 8 
3 0 8 9 
3 0 9 10 
3 0 10 11 
3 0 11 12 
3 0 12 1 
3 1 13 14 
3 1 14 2 
3 2 14 15 
3 2 15 3 
3 3 15 16 
3 3 16 4 
3 4 16 17 
3 4 17 5 
3 5 17 18 
3 5 18 6 
3 6 18 19 
3 6 19 7 
3 7 19 20 
3 7 20 8 
3 8 20 21 
3 8 21 9 
3 9 21 22 
3 9 22 10 
3 10 22 23 
3 10 23 11 
3 11 23 24 
3 11 24 12 
3 12 24 13 
3 12 13 1 
3 13 25 26 
3 13 26 14 
3 14 26 27 
3 14 27 15 
3 15 27 28 
3 15 28 16 
3 16 28 29 
3 16 29 17 
3 17 29 30 
3 17 30 18 
3 18 30 31 
3 18 31 19 
3 19 31 32 
3 19 32 20 
3 20 32 33 
3 20 33 21 
3 21 33 34 
3 21 34 22 
3 22 34 35 
3 22 35 23 
3 23 35 36 
3 23 36 24 
3 24 36 25 
3 24 25 13 
3 25 37 38 
3 25 38 26 
3 26 38 39 
3 26 39 27 
3 27 39 40 
3 27 40 28 
3 28 40 41 
3 28 41 29 
3 29 41 42 
3 29 42 30 
3 30 42 43 
3 30 43 31 
3 31 43 44 
3 31 44 32 
3 32 44 45 
3 32 45 33 
3 33 45 46 
3 33 46 34 
3 34 46 47 
3 34 47 35 
3 35 47 48 
3 35 48 36 
3 36 48 37 
3 36 37 25 
3 37 49 50 
3 37 50 38 
3 38 50 51 
3 38 51 39 
3 39 51 52 
3 39 52 40 
3 40 52 53 
3 40 53 41 
3 41 53 54 
3 41 54 42 
3 42 54 55 
3 42 55 43 
3 43 55 56 
3 43 56 44 
3 44 56 57 
3 44 57 45 
3 45 57 58 
3 45 58 46 
3 46 58 59 
3 46 59 47 
3 47 59 60 
3 47 60 48 
3 48 60 49 
3 48 49 37 
3 49 61 62 
3 49 62 50 
3 50 62 63 
3 50 63 51 
3 51 63 64 
3 51 64 52 
3 52 64 65 
3 52 65 53 
3 53 65 66 
3 53 66 54 
3 54 66 67 
3 54 67 55 
3 55 67 68 
3 55 68 56 
3 56 68 69 
3 56 69 57 
3 57 69 70 
3 57 70 58 
3 58 70 71 
3 58 71 59 
3 59 71 72 
3 59 72 60 
3 60 72 61 
3 60 61 49 
3 61 73 74 
3 61 74 62 
3 62 74 75 
3 62 75 63 
3 63 75 76 
3 63 76 64 
3 64 76 77 
3 64 77 65 
3 65 77 78 
3 65 78 66 
3 66 78 79 
3 66 79 67 
3 67 79 80 
3 67 80 68 
3 68 80 81 
3 68 81 69 
3 69 81 82 
3 69 82 70 
3 70 82 83 
3 70 83 71 
3 71 83 84 
3 71 84 72 
3 72 84 73 
3 72 73 61 
3 73 85 86 
3 73 86 74 
3 74 86 87 
3 74 87 75 
3 75 87 88 
3 75 88 76 
3 76 88 89 
3 76 89 77 
3 77 89 90 
3 77 90 78 
3 78 90 91 
3 78 91 79 
3 79 91 92 
3 79 92 80 
3 80 92 93 
3 80 93 81 
3 81 93 94 
3 81 94 82 
3 82 94 95 
3 82 95 83 
3 83 95 96 
3 83 96 84 
3 84 96 85 
3 84 85 73 
3 85 97 98 
3 85 98 86 
3 86 98 99 
3 86 99 87 
3 87 99 100 
3 87 100 88 
3 88 100 101 
3 88 101 89 
3 89 101 102 
3 89 102 90 
3 90 102 103 
3 90 103 91 
3 91 103 104 
3 91 104 92 
3 92 104 105 
3 92 105 93 
3 93 105 106 
3 93 106 94 
3 94 106 107 
3 94 107 95 
3 95 107 108 
3 95 108 96 
3 96 108 97 
3 96 97 85 
3 97 109 110 
3 97 110 98 
3 98 110 111 
3 98 111 99 
3 99 111 112 
3 99 112 100 
3 100 112 113 
3 100 113 101 
3 101 113 114 
3 101 114 102 
3 102 114 115 
3 102 115 103 
3 103 115 116 
3 103 116 104 
3 104 116 117 
3 104 117 105 
3 105 117 118 
3 105 118 106 
3 106 118 119 
3 106 119 107 
3 107 119 120 
3 107 120 108 
3 108 120 109 
3 108 109 97 
3 109 121 122 
3 109 122 110 
3 110 122 123 
3 110 123 111 
3 111 123 124 
3 111 124 112 
3 112 124 125 
3 112 125 113 
3 113 125 126 
3 113 126 114 
3 114 126 127 
3 114 127 115 
3 115 127 128 
3 115 128 116 
3 116 128 129 
3 116 129 117 
3 117 129 130 
3 117 130 118 
3 118 130 131 
3 118 131 119 
3 119 131 132 
3 119 132 120 
3 120 132 121 
3 120 121 109 
3 121 133 134 
3 121 134 122 
3 122 134 135 
3 122 135 123 
3 123 135 136 
3 123 136 124 
3 124 136 137 
3 124 137 125 
3 125 137 138 
3 125 138 126 
3 126 138 139 
3 126 139 127 
3 127 139 140 
3 127 140 128 
3 128 140 141 
3 128 141 129 
3 129 141 142 
3 129 142 130 
3 130 142 143 
3 130 143 131 
3 131 143 144 
3 131 144 132 
3 132 144 133 
3 132 133 121 
3 133 145 134 
3 134 145 135 
3 135 145 136 
3 136 145 137 
3 137 145 138 
3 138 145 139 
3 139 145 140 
3 140 145 141 
3 141 145 142 
3 142 145 143 
3 143 145 144 
3 144 145 133 
