ply
format ascii 1.0
comment VCGLIB generated
element vertex 288
property float x
property float y
property float z
property float nx
property float ny
property float nz
property float texture_u
property float texture_v
element face 576
property list uchar int vertex_indices
end_header
0.25 0 0 0.25 -1.216507e-08 3.64952e-08 1.000000 0.045455
0.2469551 -0.01136363 -4.967203e-10 0.2167588 -0.1245504 -0.001678657 0.993910 0.022727
0.2386363 -0.0196824 -8.60345e-10 0.1257907 -0.2160303 -0.0027615 0.977273 0.006090
0.2272727 -0.02272728 -9.934406e-10 0.001116333 -0.2499802 -0.002939455 0.954545 0.000000
0.2159091 -0.01968239 -8.60345e-10 -0.1241144 -0.217003 -0.002308238 0.931818 0.006090
0.2075904 -0.01136364 -4.967204e-10 -0.2161989 -0.1255251 -0.001223278 0.915181 0.022727
0.2045455 1.986882e-09 8.684935e-17 -0.25 1.031445e-08 3.683737e-10 0.909091 0.045455
0.2075904 0.01136364 4.967206e-10 -0.2161989 0.1255251 0.001223268 0.915181 0.068182
0.2159091 0.0196824 8.60345e-10 -0.1241143 0.217003 0.002308211 0.931818 0.084819
0.2272727 0.02272728 9.934406e-10 0.001116376 0.2499802 0.002939458 0.954545 0.090909
0.2386363 0.0196824 8.60345e-10 0.1257907 0.2160303 0.002761535 0.977273 0.084819
0.2469551 0.01136363 4.967201e-10 0.2167589 0.1245503 0.001678713 0.993910 0.068182
0.2414815 -2.828335e-09 0.06470475 0.2414815 3.488337e-08 0.06470478 0.982963 0.045455
0.2385403 -0.01136364 0.0639167 0.2098075 -0.1245503 0.05447983 0.977081 0.022727
0.230505 -0.0196824 0.06176365 0.1222192 -0.2160303 0.02988963 0.961010 0.006090
0.2195286 -0.02272728 0.0588225 0.001839089 -0.2499802 -0.002550367 0.939057 0.000000
0.2085522 -0.0196824 0.0558814 -0.1192878 -0.217003 -0.03435272 0.917104 0.006090
0.2005168 -0.01136364 0.05372835 -0.2085155 -0.1255251 -0.057138 0.901034 0.022727
0.1975757 -3.27211e-10 0.05294025 -0.2414815 2.493072e-08 -0.0647048 0.895151 0.045455
0.2005168 0.01136364 0.05372835 -0.2091487 0.1255251 -0.0547748 0.901034 0.068182
0.2085522 0.01968239 0.0558814 -0.1204826 0.217003 -0.02989358 0.917104 0.084819
0.2195286 0.02272727 0.0588225 0.0003175433 0.2499802 0.003128232 0.939057 0.090909
0.230505 0.01968239 0.06176365 0.1207898 0.2160302 0.03522445 0.961010 0.084819
0.2385403 0.01136363 0.0639167 0.2089385 0.1245503 0.0577228 0.977081 0.068182
0.2165063 -5.463925e-09 0.125 0.2165063 3.83303e-08 0.125 0.933013 0.045455
0.2138694 -0.01136364 0.1234775 0.188558 -0.1245503 0.1069256 0.927739 0.022727
0.2066651 -0.01968241 0.1193182 0.1103186 -0.2160303 0.06050375 0.913330 0.006090
0.196824 -0.02272728 0.1136364 0.002436502 -0.2499802 -0.001987478 0.893648 0.000000
0.1869828 -0.0196824 0.1079545 -0.106332 -0.217003 -0.06405615 0.873966 0.006090
0.1797785 -0.01136365 0.1037951 -0.1866221 -0.1255251 -0.1091589 0.859557 0.022727
0.1771415 -2.483602e-09 0.1022727 -0.2165063 1.135789e-08 -0.125 0.854283 0.045455
0.1797785 0.01136363 0.1037951 -0.1878453 0.1255251 -0.10704 0.859557 0.068182
0.1869828 0.01968239 0.1079545 -0.1086403 0.217003 -0.0600582 0.873966 0.084819
0.196824 0.02272727 0.1136364 -0.000502921 0.2499802 0.003103828 0.893648 0.090909
0.2066651 0.01968239 0.1193182 0.1075572 0.2160303 0.0652869 0.913330 0.084819
0.2138694 0.01136362 0.1234775 0.1868794 0.1245503 0.1098332 0.927739 0.068182
0.1767767 -7.727155e-09 0.1767767 0.1767767 -5.63874e-08 0.1767767 0.853553 0.045455
0.1746236 -0.01136365 0.1746237 0.1544587 -0.1245502 0.1520847 0.849247 0.022727
0.1687414 -0.01968241 0.1687414 0.09090008 -0.2160303 0.08699472 0.837483 0.006090
0.160706 -0.02272728 0.1607061 0.00286787 -0.2499802 -0.001289145 0.821412 0.000000
0.1526708 -0.01968241 0.1526708 -0.08612998 -0.217003 -0.08939427 0.805342 0.006090
0.1467885 -0.01136365 0.1467886 -0.1520107 -0.1255251 -0.1537407 0.793577 0.022727
0.1446355 -4.335337e-09 0.1446355 -0.1767767 7.727155e-09 -0.1767767 0.789271 0.045455
0.1467885 0.01136363 0.1467886 -0.1537407 0.1255252 -0.1520107 0.793577 0.068182
0.1526708 0.01968239 0.1526708 -0.08939425 0.217003 -0.08612993 0.805342 0.084819
0.160706 0.02272726 0.1607061 -0.001289113 0.2499802 0.002867908 0.821412 0.090909
0.1687414 0.01968239 0.1687414 0.08699476 0.2160303 0.09090013 0.837483 0.084819
0.1746236 0.01136362 0.1746237 0.1520847 0.1245503 0.1544587 0.849247 0.068182
0.125 -9.463795e-09 0.2165063 0.125 -3.865995e-08 0.2165063 0.750000 0.045455
0.1234775 -0.01136365 0.2138694 0.1098332 -0.1245503 0.1868793 0.746955 0.022727
0.1193181 -0.01968241 0.2066651 0.06528687 -0.2160303 0.1075572 0.738636 0.006090
0.1136364 -0.02272728 0.196824 0.00310381 -0.2499802 -0.0005029495 0.727273 0.000000
0.1079545 -0.01968241 0.1869828 -0.0600582 -0.217003 -0.1086403 0.715909 0.006090
0.1037951 -0.01136365 0.1797785 -0.1070401 -0.1255251 -0.1878453 0.707590 0.022727
0.1022727 -5.756225e-09 0.1771416 -0.125 -2.324146e-09 -0.2165063 0.704545 0.045455
0.1037951 0.01136363 0.1797785 -0.1091589 0.1255251 -0.1866221 0.707590 0.068182
0.1079545 0.01968239 0.1869828 -0.06405613 0.217003 -0.106332 0.715909 0.084819
0.1136364 0.02272726 0.196824 -0.001987457 0.2499802 0.002436534 0.727273 0.090909
0.1193181 0.01968239 0.2066651 0.0605038 0.2160303 0.1103187 0.738636 0.084819
0.1234775 0.01136362 0.2138694 0.1069256 0.1245504 0.188558 0.746955 0.068182
0.06470475 -1.055549e-08 0.2414815 0.06470475 6.475597e-09 0.2414815 0.629410 0.045455
0.0639167 -0.01136365 0.2385403 0.0577228 -0.1245503 0.2089385 0.627833 0.022727
0.06176365 -0.01968241 0.230505 0.03522443 -0.2160303 0.1207898 0.623527 0.006090
0.0588225 -0.02272728 0.2195286 0.003128212 -0.2499802 0.0003175013 0.617645 0.000000
0.0558814 -0.01968241 0.2085522 -0.02989358 -0.217003 -0.1204827 0.611763 0.006090
0.05372835 -0.01136365 0.2005169 -0.05477478 -0.1255251 -0.2091487 0.607457 0.022727
0.05294025 -6.64943e-09 0.1975757 -0.06470475 -1.00734e-08 -0.2414815 0.605881 0.045455
0.05372835 0.01136363 0.2005169 -0.05713795 0.1255251 -0.2085155 0.607457 0.068182
0.0558814 0.01968239 0.2085522 -0.0343527 0.217003 -0.1192878 0.611763 0.084819
0.0588225 0.02272726 0.2195286 -0.00255035 0.2499802 0.001839129 0.617645 0.090909
0.06176365 0.01968239 0.230505 0.02988962 0.2160302 0.1222193 0.623527 0.084819
0.0639167 0.01136362 0.2385403 0.05447984 0.1245503 0.2098075 0.627833 0.068182
-1.092785e-08 -1.092785e-08 0.25 -2.433011e-09 -1.579387e-08 0.25 0.500000 0.045455
-1.079475e-08 -0.01136365 0.2469552 0.001678683 -0.1245503 0.2167588 0.500000 0.022727
-1.043113e-08 -0.01968241 0.2386363 0.002761508 -0.2160303 0.1257907 0.500000 0.006090
-9.934405e-09 -0.02272728 0.2272727 0.002939442 -0.2499802 0.00111633 0.500000 0.000000
-9.437685e-09 -0.01968241 0.2159091 0.002308207 -0.217003 -0.1241143 0.500000 0.006090
-9.07406e-09 -0.01136365 0.2075904 0.00122326 -0.1255251 -0.2161989 0.500000 0.022727
-8.940965e-09 -6.954085e-09 0.2045455 -1.841865e-09 1.240134e-08 -0.25 0.500000 0.045455
-9.07406e-09 0.01136363 0.2075904 -0.001223262 0.1255251 -0.2161989 0.500000 0.068182
-9.437685e-09 0.01968239 0.2159091 -0.002308217 0.217003 -0.1241143 0.500000 0.084819
-9.934405e-09 0.02272726 0.2272727 -0.00293945 0.2499802 0.001116376 0.500000 0.090909
-1.043113e-08 0.01968239 0.2386363 -0.002761515 0.2160303 0.1257907 0.500000 0.084819
-1.079475e-08 0.01136362 0.2469552 -0.001678679 0.1245503 0.2167588 0.500000 0.068182
-0.0647048 -1.055549e-08 0.2414815 -0.06470478 3.810478e-08 0.2414815 0.370590 0.045455
-0.0639167 -0.01136365 0.2385403 -0.05447983 -0.1245503 0.2098075 0.372167 0.022727
-0.06176365 -0.01968241 0.230505 -0.02988963 -0.2160303 0.1222192 0.376473 0.006090
-0.05882255 -0.02272728 0.2195286 0.002550355 -0.2499802 0.001839084 0.382355 0.000000
-0.0558814 -0.01968241 0.2085522 0.03435272 -0.217003 -0.1192878 0.388237 0.006090
-0.05372835 -0.01136365 0.2005169 0.057138 -0.1255251 -0.2085155 0.392543 0.022727
-0.0529403 -6.64943e-09 0.1975757 0.06470478 2.234343e-08 -0.2414815 0.394119 0.045455
-0.05372835 0.01136363 0.2005169 0.0547748 0.1255251 -0.2091487 0.392543 0.068182
-0.0558814 0.01968239 0.2085522 0.02989358 0.217003 -0.1204826 0.388237 0.084819
-0.05882255 0.02272726 0.2195286 -0.00312822 0.2499802 0.0003175475 0.382355 0.090909
-0.06176365 0.01968239 0.230505 -0.03522443 0.2160303 0.1207898 0.376473 0.084819
-0.0639167 0.01136362 0.2385403 -0.05772279 0.1245503 0.2089385 0.372167 0.068182
-0.125 -9.463795e-09 0.2165063 -0.125 5.379455e-08 0.2165063 0.250000 0.045455
-0.1234775 -0.01136365 0.2138694 -0.1069257 -0.1245503 0.188558 0.253045 0.022727
-0.1193182 -0.01968241 0.2066651 -0.06050375 -0.2160303 0.1103186 0.261364 0.006090
-0.1136364 -0.02272728 0.196824 0.00198747 -0.2499802 0.002436496 0.272727 0.000000
-0.1079545 -0.0196824 0.1869828 0.06405615 -0.217003 -0.106332 0.284091 0.006090
-0.1037951 -0.01136365 0.1797785 0.1091589 -0.1255251 -0.1866221 0.292410 0.022727
-0.1022727 -5.756225e-09 0.1771415 0.125 9.463792e-09 -0.2165063 0.295455 0.045455
-0.1037951 0.01136363 0.1797785 0.1070401 0.1255251 -0.1878453 0.292410 0.068182
-0.1079545 0.01968239 0.1869828 0.0600582 0.217003 -0.1086403 0.284091 0.084819
-0.1136364 0.02272726 0.196824 -0.003103815 0.2499802 -0.0005029073 0.272727 0.090909
-0.1193182 0.01968239 0.2066651 -0.06528687 0.2160303 0.1075572 0.261364 0.084819
-0.1234775 0.01136362 0.2138694 -0.1098332 0.1245503 0.1868794 0.253045 0.068182
-0.1767767 -7.727155e-09 0.1767767 -0.1767767 -7.727155e-09 0.1767767 0.146447 0.045455
-0.1746236 -0.01136365 0.1746237 -0.1520847 -0.1245502 0.1544587 0.150753 0.022727
-0.1687414 -0.01968241 0.1687414 -0.0869947 -0.2160303 0.09090008 0.162517 0.006090
-0.160706 -0.02272728 0.1607061 0.001289133 -0.2499802 0.002867865 0.178588 0.000000
-0.1526708 -0.01968241 0.1526708 0.08939425 -0.217003 -0.08612998 0.194658 0.006090
-0.1467885 -0.01136365 0.1467886 0.1537406 -0.1255251 -0.1520107 0.206423 0.022727
-0.1446355 -4.335337e-09 0.1446355 0.1767767 7.727155e-09 -0.1767767 0.210729 0.045455
-0.1467885 0.01136363 0.1467886 0.1520107 0.1255251 -0.1537406 0.206423 0.068182
-0.1526708 0.01968239 0.1526708 0.08612993 0.217003 -0.08939423 0.194658 0.084819
-0.160706 0.02272726 0.1607061 -0.002867885 0.2499802 -0.001289096 0.178588 0.090909
-0.1687414 0.01968239 0.1687414 -0.09090011 0.2160303 0.08699478 0.162517 0.084819
-0.1746236 0.01136362 0.1746237 -0.1544587 0.1245502 0.1520847 0.150753 0.068182
-0.2165063 -5.463925e-09 0.125 -0.2165063 -7.845428e-08 0.125 0.066987 0.045455
-0.2138694 -0.01136364 0.1234776 -0.1868794 -0.1245503 0.1098332 0.072261 0.022727
-0.2066651 -0.01968241 0.1193182 -0.1075571 -0.2160303 0.06528682 0.086670 0.006090
-0.196824 -0.02272728 0.1136364 0.0005029523 -0.2499802 0.00310379 0.106352 0.000000
-0.1869828 -0.0196824 0.1079545 0.1086403 -0.217003 -0.06005822 0.126035 0.006090
-0.1797785 -0.01136365 0.1037952 0.1878453 -0.1255251 -0.1070401 0.140443 0.022727
-0.1771415 -2.483602e-09 0.1022727 0.2165063 1.725186e-08 -0.125 0.145717 0.045455
-0.1797785 0.01136363 0.1037952 0.1866221 0.1255252 -0.1091588 0.140443 0.068182
-0.1869828 0.01968239 0.1079545 0.106332 0.217003 -0.06405613 0.126035 0.084819
-0.196824 0.02272727 0.1136364 -0.002436534 0.2499802 -0.001987437 0.106352 0.090909
-0.2066651 0.01968239 0.1193182 -0.1103187 0.2160303 0.0605038 0.086670 0.084819
-0.2138694 0.01136362 0.1234776 -0.188558 0.1245503 0.1069257 0.072261 0.068182
-0.2414815 -2.828334e-09 0.06470475 -0.2414815 -2.472544e-08 0.06470475 0.017037 0.045455
-0.2385403 -0.01136364 0.06391665 -0.2089386 -0.1245503 0.0577228 0.022919 0.022727
-0.230505 -0.0196824 0.0617636 -0.1207897 -0.2160303 0.0352244 0.038990 0.006090
-0.2195286 -0.02272728 0.0588225 -0.0003175285 -0.2499802 0.00312821 0.060943 0.000000
-0.2085522 -0.0196824 0.05588135 0.1204827 -0.217003 -0.0298936 0.082896 0.006090
-0.2005168 -0.01136364 0.0537283 0.2091487 -0.1255252 -0.0547748 0.098966 0.022727
-0.1975757 -3.2721e-10 0.05294025 0.2414815 -2.369452e-08 -0.06470478 0.104849 0.045455
-0.2005168 0.01136364 0.0537283 0.2085155 0.1255251 -0.05713795 0.098966 0.068182
-0.2085522 0.01968239 0.05588135 0.1192878 0.217003 -0.0343527 0.082896 0.084819
-0.2195286 0.02272727 0.0588225 -0.001839102 0.2499802 -0.002550345 0.060943 0.090909
-0.230505 0.01968239 0.0617636 -0.1222192 0.2160303 0.0298896 0.038990 0.084819
-0.2385403 0.01136363 0.06391665 -0.2098075 0.1245503 0.05447983 0.022919 0.068182
-0.25 9.553425e-16 -2.185569e-08 -0.25 4.866028e-09 -3.831995e-08 0.000000 0.045455
-0.2469551 -0.01136363 -2.208622e-08 -0.2167589 -0.1245503 0.001678646 0.006090 0.022727
-0.2386363 -0.0196824 -2.17226e-08 -0.1257907 -0.2160303 0.00276148 0.022727 0.006090
-0.2272727 -0.02272728 -2.086225e-08 -0.001116345 -0.2499802 0.002939435 0.045455 0.000000
-0.2159091 -0.01968239 -1.973572e-08 0.1241144 -0.217003 0.002308218 0.068182 0.006090
-0.2075904 -0.01136364 -1.864485e-08 0.2161989 -0.1255251 0.001223267 0.084819 0.022727
-0.2045455 1.986882e-09 -1.788193e-08 0.25 -5.89397e-09 -2.576335e-16 0.090909 0.045455
-0.2075904 0.01136364 -1.76514e-08 0.2161989 0.1255251 -0.001223257 0.084819 0.068182
-0.2159091 0.0196824 -1.801503e-08 0.1241143 0.217003 -0.002308191 0.068182 0.084819
-0.2272727 0.02272728 -1.887537e-08 -0.001116364 0.2499802 -0.002939435 0.045455 0.090909
-0.2386363 0.0196824 -2.000191e-08 -0.1257907 0.2160303 -0.002761515 0.022727 0.084819
-0.2469551 0.01136363 -2.109278e-08 -0.2167589 0.1245503 -0.001678702 0.006090 0.068182
-0.2414815 2.828336e-09 -0.06470475 -0.2414815 -2.880082e-08 -0.06470483 0.017037 0.045455
-0.2385403 -0.01136363 -0.0639167 -0.2098074 -0.1245503 -0.0544799 0.022919 0.022727
-0.230505 -0.01968239 -0.06176365 -0.1222192 -0.2160303 -0.02988967 0.038990 0.006090
-0.2195286 -0.02272727 -0.0588225 -0.001839075 -0.2499802 0.002550347 0.060943 0.000000
-0.2085522 -0.01968239 -0.0558814 0.1192878 -0.217003 0.03435275 0.082896 0.006090
-0.2005168 -0.01136363 -0.05372835 0.2085155 -0.1255251 0.05713803 0.098966 0.022727
-0.1975757 4.300974e-09 -0.05294025 0.2414815 3.400897e-08 0.06470483 0.104849 0.045455
-0.2005168 0.01136365 -0.05372835 0.2091487 0.125525 0.05477485 0.098966 0.068182
-0.2085522 0.0196824 -0.0558814 0.1204826 0.217003 0.0298936 0.082896 0.084819
-0.2195286 0.02272728 -0.0588225 -0.0003175492 0.2499802 -0.003128222 0.060943 0.090909
-0.230505 0.0196824 -0.06176365 -0.1207898 0.2160303 -0.03522447 0.038990 0.084819
-0.2385403 0.01136363 -0.0639167 -0.2089385 0.1245503 -0.05772283 0.022919 0.068182
-0.2165063 5.463925e-09 -0.125 -0.2165063 5.979e-10 -0.125 0.066987 0.045455
-0.2138693 -0.01136363 -0.1234776 -0.188558 -0.1245504 -0.1069257 0.072261 0.022727
-0.2066651 -0.01968239 -0.1193182 -0.1103187 -0.2160303 -0.06050383 0.086670 0.006090
-0.1968239 -0.02272726 -0.1136364 -0.002436512 -0.2499802 0.001987442 0.106352 0.000000
-0.1869827 -0.01968239 -0.1079546 0.106332 -0.217003 0.06405615 0.126035 0.006090
-0.1797785 -0.01136363 -0.1037952 0.1866221 -0.125525 0.1091589 0.140443 0.022727
-0.1771415 6.457365e-09 -0.1022727 0.2165063 -2.314583e-08 0.125 0.145717 0.045455
-0.1797785 0.01136365 -0.1037952 0.1878453 0.1255251 0.1070401 0.140443 0.068182
-0.1869827 0.0196824 -0.1079546 0.1086403 0.217003 0.0600582 0.126035 0.084819
-0.1968239 0.02272728 -0.1136364 0.000502931 0.2499802 -0.003103805 0.106352 0.090909
-0.2066651 0.0196824 -0.1193182 -0.1075572 0.2160303 -0.0652869 0.086670 0.084819
-0.2138693 0.01136363 -0.1234776 -0.1868793 0.1245504 -0.1098332 0.072261 0.068182
-0.1767766 7.727155e-09 -0.1767767 -0.1767766 1.745921e-08 -0.1767768 0.146447 0.045455
-0.1746236 -0.01136363 -0.1746237 -0.1544586 -0.1245504 -0.1520847 0.150753 0.022727
-0.1687413 -0.01968239 -0.1687414 -0.09090009 -0.2160303 -0.08699478 0.162517 0.006090
-0.160706 -0.02272726 -0.1607061 -0.002867875 -0.2499802 0.001289121 0.178588 0.000000
-0.1526708 -0.01968239 -0.1526708 0.0861299 -0.217003 0.0893942 0.194659 0.006090
-0.1467885 -0.01136363 -0.1467886 0.1520107 -0.125525 0.1537407 0.206423 0.022727
-0.1446355 8.3091e-09 -0.1446355 0.1767767 -7.727156e-09 0.1767767 0.210729 0.045455
-0.1467885 0.01136365 -0.1467886 0.1537406 0.1255251 0.1520108 0.206423 0.068182
-0.1526708 0.01968241 -0.1526708 0.08939423 0.217003 0.08612995 0.194659 0.084819
-0.160706 0.02272728 -0.1607061 0.001289107 0.2499802 -0.002867877 0.178588 0.090909
-0.1687413 0.01968241 -0.1687414 -0.08699477 0.2160303 -0.09090015 0.162517 0.084819
-0.1746236 0.01136364 -0.1746237 -0.1520846 0.1245504 -0.1544587 0.150753 0.068182
-0.125 9.463795e-09 -0.2165063 -0.125 4.597768e-09 -0.2165064 0.250000 0.045455
-0.1234775 -0.01136362 -0.2138694 -0.1098332 -0.1245504 -0.1868793 0.253045 0.022727
-0.1193181 -0.01968239 -0.2066651 -0.06528686 -0.2160303 -0.1075572 0.261364 0.006090
-0.1136364 -0.02272726 -0.196824 -0.00310381 -0.2499802 0.0005029372 0.272727 0.000000
-0.1079545 -0.01968239 -0.1869828 0.06005818 -0.217003 0.1086403 0.284091 0.006090
-0.1037951 -0.01136363 -0.1797785 0.10704 -0.1255251 0.1878453 0.292410 0.022727
-0.1022727 9.729985e-09 -0.1771416 0.125 2.324147e-09 0.2165064 0.295455 0.045455
-0.1037951 0.01136365 -0.1797785 0.1091588 0.1255252 0.1866221 0.292410 0.068182
-0.1079545 0.01968241 -0.1869828 0.06405615 0.217003 0.1063321 0.284091 0.084819
-0.1136364 0.02272728 -0.196824 0.001987445 0.2499802 -0.002436514 0.272727 0.090909
-0.1193181 0.01968241 -0.2066651 -0.06050385 0.2160303 -0.1103187 0.261364 0.084819
-0.1234775 0.01136364 -0.2138694 -0.1069256 0.1245504 -0.188558 0.253045 0.068182
-0.06470475 1.055549e-08 -0.2414815 -0.06470475 4.096815e-08 -0.2414815 0.370591 0.045455
-0.06391665 -0.01136362 -0.2385404 -0.05772277 -0.1245503 -0.2089385 0.372167 0.022727
-0.0617636 -0.01968239 -0.230505 -0.03522443 -0.2160303 -0.1207897 0.376473 0.006090
-0.0588225 -0.02272726 -0.2195286 -0.003128225 -0.2499802 -0.0003175305 0.382355 0.000000
-0.05588135 -0.01968239 -0.2085522 0.02989358 -0.217003 0.1204827 0.388237 0.006090
-0.0537283 -0.01136363 -0.2005169 0.05477478 -0.1255251 0.2091487 0.392543 0.022727
-0.05294025 1.062319e-08 -0.1975757 0.06470475 -3.707835e-08 0.2414815 0.394120 0.045455
-0.0537283 0.01136365 -0.2005169 0.05713795 0.1255251 0.2085155 0.392543 0.068182
-0.05588135 0.01968241 -0.2085522 0.0343527 0.217003 0.1192878 0.388237 0.084819
-0.0588225 0.02272728 -0.2195286 0.002550353 0.2499802 -0.001839101 0.382355 0.090909
-0.0617636 0.01968241 -0.230505 -0.02988962 0.2160303 -0.1222192 0.376473 0.084819
-0.06391665 0.01136364 -0.2385404 -0.05447985 0.1245503 -0.2098075 0.372167 0.068182
2.98122e-09 1.092785e-08 -0.25 3.831995e-08 8.494835e-09 -0.25 0.500000 0.045455
2.94491e-09 -0.01136362 -0.2469552 -0.001678651 -0.1245503 -0.2167589 0.500000 0.022727
2.84571e-09 -0.01968239 -0.2386363 -0.00276149 -0.2160303 -0.1257907 0.500000 0.006090
2.7102e-09 -0.02272726 -0.2272727 -0.002939445 -0.2499802 -0.001116354 0.500000 0.000000
2.57469e-09 -0.01968239 -0.2159091 -0.002308227 -0.217003 0.1241144 0.500000 0.006090
2.47549e-09 -0.01136363 -0.2075904 -0.001223272 -0.1255251 0.2161989 0.500000 0.022727
2.43918e-09 1.092785e-08 -0.2045455 0 -6.50737e-09 0.25 0.500000 0.045455
2.47549e-09 0.01136365 -0.2075904 0.001223263 0.1255251 0.2161989 0.500000 0.068182
2.57469e-09 0.01968241 -0.2159091 0.002308201 0.217003 0.1241143 0.500000 0.084819
2.7102e-09 0.02272728 -0.2272727 0.002939445 0.2499802 -0.001116355 0.500000 0.090909
2.84571e-09 0.01968241 -0.2386363 0.002761525 0.2160303 -0.1257907 0.500000 0.084819
2.94491e-09 0.01136364 -0.2469552 0.001678707 0.1245503 -0.2167588 0.500000 0.068182
0.06470475 1.055549e-08 -0.2414815 0.06470475 -2.82608e-09 -0.2414815 0.629409 0.045455
0.0639167 -0.01136362 -0.2385403 0.05447984 -0.1245503 -0.2098075 0.627833 0.022727
0.06176365 -0.01968239 -0.230505 0.02988963 -0.2160303 -0.1222192 0.623527 0.006090
0.0588225 -0.02272726 -0.2195286 -0.002550353 -0.2499802 -0.0018391 0.617645 0.000000
0.05588135 -0.01968239 -0.2085522 -0.0343527 -0.217003 0.1192878 0.611763 0.006090
0.0537283 -0.01136363 -0.2005169 -0.05713797 -0.1255251 0.2085155 0.607457 0.022727
0.05294025 1.062319e-08 -0.1975757 -0.06470475 1.449388e-08 0.2414815 0.605881 0.045455
0.0537283 0.01136365 -0.2005169 -0.0547748 0.1255251 0.2091487 0.607457 0.068182
0.05588135 0.01968241 -0.2085522 -0.02989358 0.217003 0.1204827 0.611763 0.084819
0.0588225 0.02272728 -0.2195286 0.003128222 0.2499802 -0.0003175318 0.617645 0.090909
0.06176365 0.01968241 -0.230505 0.03522445 0.2160303 -0.1207898 0.623527 0.084819
0.0639167 0.01136364 -0.2385403 0.05772277 0.1245503 -0.2089385 0.627833 0.068182
0.125 9.463795e-09 -0.2165063 0.125 4.597772e-09 -0.2165063 0.750000 0.045455
0.1234775 -0.01136362 -0.2138694 0.1069256 -0.1245504 -0.188558 0.746955 0.022727
0.1193181 -0.01968239 -0.2066651 0.06050383 -0.2160303 -0.1103187 0.738636 0.006090
0.1136364 -0.02272726 -0.196824 -0.001987478 -0.2499802 -0.002436499 0.727273 0.000000
0.1079545 -0.01968239 -0.1869828 -0.06405617 -0.217003 0.106332 0.715909 0.006090
0.1037951 -0.01136363 -0.1797785 -0.1091589 -0.1255251 0.1866221 0.707590 0.022727
0.1022727 9.729985e-09 -0.1771416 -0.125 2.000603e-08 0.2165063 0.704545 0.045455
0.1037951 0.01136365 -0.1797785 -0.1070401 0.1255251 0.1878453 0.707590 0.068182
0.1079545 0.01968241 -0.1869828 -0.0600582 0.217003 0.1086403 0.715909 0.084819
0.1136364 0.02272728 -0.196824 0.003103835 0.2499802 0.0005029152 0.727273 0.090909
0.1193181 0.01968241 -0.2066651 0.06528693 0.2160303 -0.1075572 0.738636 0.084819
0.1234775 0.01136364 -0.2138694 0.1098332 0.1245504 -0.1868793 0.746955 0.068182
0.1767768 7.72715e-09 -0.1767766 0.1767767 2.719125e-08 -0.1767767 0.853554 0.045455
0.1746237 -0.01136363 -0.1746236 0.1520846 -0.1245503 -0.1544587 0.849247 0.022727
0.1687414 -0.01968239 -0.1687413 0.08699472 -0.2160303 -0.0909001 0.837483 0.006090
0.1607061 -0.02272726 -0.160706 -0.001289114 -0.2499802 -0.002867902 0.821412 0.000000
0.1526708 -0.01968239 -0.1526708 -0.08939426 -0.217003 0.08612997 0.805342 0.006090
0.1467886 -0.01136363 -0.1467885 -0.1537407 -0.1255251 0.1520107 0.793577 0.022727
0.1446355 8.309095e-09 -0.1446355 -0.1767767 -4.309095e-08 0.1767767 0.789271 0.045455
0.1467886 0.01136365 -0.1467885 -0.1520107 0.1255251 0.1537407 0.793577 0.068182
0.1526708 0.01968241 -0.1526708 -0.08612995 0.217003 0.08939427 0.805342 0.084819
0.1607061 0.02272728 -0.160706 0.002867875 0.2499802 0.001289139 0.821412 0.090909
0.1687414 0.01968241 -0.1687413 0.09090011 0.2160303 -0.08699476 0.837483 0.084819
0.1746237 0.01136364 -0.1746236 0.1544586 0.1245504 -0.1520846 0.849247 0.068182
0.2165064 5.46392e-09 -0.1249999 0.2165064 2.0062e-08 -0.1249999 0.933013 0.045455
0.2138695 -0.01136363 -0.1234775 0.1868794 -0.1245503 -0.1098332 0.927739 0.022727
0.2066652 -0.01968239 -0.1193181 0.1075572 -0.2160303 -0.06528685 0.913330 0.006090
0.196824 -0.02272727 -0.1136363 -0.0005029445 -0.2499802 -0.003103818 0.893648 0.000000
0.1869828 -0.01968239 -0.1079545 -0.1086403 -0.217003 0.06005815 0.873966 0.006090
0.1797785 -0.01136363 -0.1037951 -0.1878454 -0.1255251 0.10704 0.859557 0.022727
0.1771416 6.457365e-09 -0.1022727 -0.2165064 4.3005e-10 0.1249999 0.854283 0.045455
0.1797785 0.01136365 -0.1037951 -0.1866221 0.1255251 0.1091588 0.859557 0.068182
0.1869828 0.01968241 -0.1079545 -0.106332 0.217003 0.06405613 0.873966 0.084819
0.196824 0.02272728 -0.1136363 0.002436524 0.2499802 0.001987464 0.893648 0.090909
0.2066652 0.01968241 -0.1193181 0.1103187 0.2160303 -0.0605038 0.913330 0.084819
0.2138695 0.01136363 -0.1234775 0.188558 0.1245504 -0.1069256 0.927739 0.068182
0.2414815 2.828332e-09 -0.0647047 0.2414815 3.20245e-08 -0.06470472 0.982963 0.045455
0.2385403 -0.01136363 -0.06391665 0.2089385 -0.1245503 -0.05772278 0.977081 0.022727
0.230505 -0.01968239 -0.0617636 0.1207897 -0.2160303 -0.0352244 0.961010 0.006090
0.2195286 -0.02272727 -0.05882245 0.0003175275 -0.2499802 -0.00312823 0.939057 0.000000
0.2085522 -0.01968239 -0.05588135 -0.1204827 -0.217003 0.02989355 0.917104 0.006090
0.2005168 -0.01136363 -0.0537283 -0.2091487 -0.1255251 0.05477478 0.901034 0.022727
0.1975757 4.300972e-09 -0.0529402 -0.2414815 -1.903675e-08 0.06470472 0.895151 0.045455
0.2005168 0.01136365 -0.0537283 -0.2085155 0.1255251 0.05713793 0.901034 0.068182
0.2085522 0.0196824 -0.05588135 -0.1192878 0.217003 0.0343527 0.917104 0.084819
0.2195286 0.02272728 -0.05882245 0.001839105 0.2499802 0.00255036 0.939057 0.090909
0.230505 0.0196824 -0.0617636 0.1222192 0.2160303 -0.0298896 0.961010 0.084819
0.2385403 0.01136363 -0.06391665 0.2098075 0.1245503 -0.05447983 0.977081 0.068182
3 13 1 0 
3 0 12 13 
3 14 2 1 
3 1 13 14 
3 15 3 2 
3 2 14 15 
3 16 4 3 
3 3 15 16 
3 17 5 4 
3 4 16 17 
3 18 6 5 
3 5 17 18 
3 19 7 6 
3 6 18 19 
3 20 8 7 
3 7 19 20 
3 21 9 8 
3 8 20 21 
3 22 10 9 
3 9 21 22 
3 23 11 10 
3 10 22 23 
3 12 0 11 
3 11 23 12 
3 25 13 12 
3 12 24 25 
3 26 14 13 
3 13 25 26 
3 27 15 14 
3 14 26 27 
3 28 16 15 
3 15 27 28 
3 29 17 16 
3 16 28 29 
3 30 18 17 
3 17 29 30 
3 31 19 18 
3 18 30 31 
3 32 20 19 
3 19 31 32 
3 33 21 20 
3 20 32 33 
3 34 22 21 
3 21 33 34 
3 35 23 22 
3 22 34 35 
3 24 12 23 
3 23 35 24 
3 37 25 24 
3 24 36 37 
3 38 26 25 
3 25 37 38 
3 39 27 26 
3 26 38 39 
3 40 28 27 
3 27 39 40 
3 41 29 28 
3 28 40 41 
3 42 30 29 
3 29 41 42 
3 43 31 30 
3 30 42 43 
3 44 32 31 
3 31 43 44 
3 45 33 32 
3 32 44 45 
3 46 34 33 
3 33 45 46 
3 47 35 34 
3 34 46 47 
3 36 24 35 
3 35 47 36 
3 49 37 36 
3 36 48 49 
3 50 38 37 
3 37 49 50 
3 51 39 38 
3 38 50 51 
3 52 40 39 
3 39 51 52 
3 53 41 40 
3 40 52 53 
3 54 42 41 
3 41 53 54 
3 55 43 42 
3 42 54 55 
3 56 44 43 
3 43 55 56 
3 57 45 44 
3 44 56 57 
3 58 46 45 
3 45 57 58 
3 59 47 46 
3 46 58 59 
3 48 36 47 
3 47 59 48 
3 61 49 48 
3 48 60 61 
3 62 50 49 
3 49 61 62 
3 63 51 50 
3 50 62 63 
3 64 52 51 
3 51 63 64 
3 65 53 52 
3 52 64 65 
3 66 54 53 
3 53 65 66 
3 67 55 54 
3 54 66 67 
3 68 56 55 
3 55 67 68 
3 69 57 56 
3 56 68 69 
3 70 58 57 
3 57 69 70 
3 71 59 58 
3 58 70 71 
3 60 48 59 
3 59 71 60 
3 73 61 60 
3 60 72 73 
3 74 62 61 
3 61 73 74 
3 75 63 62 
3 62 74 75 
3 76 64 63 
3 63 75 76 
3 77 65 64 
3 64 76 77 
3 78 66 65 
3 65 77 78 
3 79 67 66 
3 66 78 79 
3 80 68 67 
3 67 79 80 
3 81 69 68 
3 68 80 81 
3 82 70 69 
3 69 81 82 
3 83 71 70 
3 70 82 83 
3 72 60 71 
3 71 83 72 
3 85 73 72 
3 72 84 85 
3 86 74 73 
3 73 85 86 
3 87 75 74 
3 74 86 87 
3 88 76 75 
3 75 87 88 
3 89 77 76 
3 76 88 89 
3 90 78 77 
3 77 89 90 
3 91 79 78 
3 78 90 91 
3 92 80 79 
3 79 91 92 
3 93 81 80 
3 80 92 93 
3 94 82 81 
3 81 93 94 
3 95 83 82 
3 82 94 95 
3 84 72 83 
3 83 95 84 
3 97 85 84 
3 84 96 97 
3 98 86 85 
3 85 97 98 
3 99 87 86 
3 86 98 99 
3 100 88 87 
3 87 99 100 
3 101 89 88 
3 88 100 101 
3 102 90 89 
3 89 101 102 
3 103 91 90 
3 90 102 103 
3 104 92 91 
3 91 103 104 
3 105 93 92 
3 92 104 105 
3 106 94 93 
3 93 105 106 
3 107 95 94 
3 94 106 107 
3 96 84 95 
3 95 107 96 
3 109 97 96 
3 96 108 109 
3 110 98 97 
3 97 109 110 
3 111 99 98 
3 98 110 111 
3 112 100 99 
3 99 111 112 
3 113 101 100 
3 100 112 113 
3 114 102 101 
3 101 113 114 
3 115 103 102 
3 102 114 115 
3 116 104 103 
3 103 115 116 
3 117 105 104 
3 104 116 117 
3 118 106 105 
3 105 117 118 
3 119 107 106 
3 106 118 119 
3 108 96 107 
3 107 119 108 
3 121 109 108 
3 108 120 121 
3 122 110 109 
3 109 121 122 
3 123 111 110 
3 110 122 123 
3 124 112 111 
3 111 123 124 
3 125 113 112 
3 112 124 125 
3 126 114 113 
3 113 125 126 
3 127 115 114 
3 114 126 127 
3 128 116 115 
3 115 127 128 
3 129 117 116 
3 116 128 129 
3 130 118 117 
3 117 129 130 
3 131 119 118 
3 118 130 131 
3 120 108 119 
3 119 131 120 
3 133 121 120 
3 120 132 133 
3 134 122 121 
3 121 133 134 
3 135 123 122 
3 122 134 135 
3 136 124 123 
3 123 135 136 
3 137 125 124 
3 124 136 137 
3 138 126 125 
3 125 137 138 
3 139 127 126 
3 126 138 139 
3 140 128 127 
3 127 139 140 
3 141 129 128 
3 128 140 141 
3 142 130 129 
3 129 141 142 
3 143 131 130 
3 130 142 143 
3 132 120 131 
3 131 143 132 
3 145 133 132 
3 132 144 145 
3 146 134 133 
3 133 145 146 
3 147 135 134 
3 134 146 147 
3 148 136 135 
3 135 147 148 
3 149 137 136 
3 136 148 149 
3 150 138 137 
3 137 149 150 
3 151 139 138 
3 138 150 151 
3 152 140 139 
3 139 151 152 
3 153 141 140 
3 140 152 153 
3 154 142 141 
3 141 153 154 
3 155 143 142 
3 142 154 155 
3 144 132 143 
3 143 155 144 
3 157 145 144 
3 144 156 157 
3 158 146 145 
3 145 157 158 
3 159 147 146 
3 146 158 159 
3 160 148 147 
3 147 159 160 
3 161 149 148 
3 148 160 161 
3 162 150 149 
3 149 161 162 
3 163 151 150 
3 150 162 163 
3 164 152 151 
3 151 163 164 
3 165 153 152 
3 152 164 165 
3 166 154 153 
3 153 165 166 
3 167 155 154 
3 154 166 167 
3 156 144 155 
3 155 167 156 
3 169 157 156 
3 156 168 169 
3 170 158 157 
3 157 169 170 
3 171 159 158 
3 158 170 171 
3 172 160 159 
3 159 171 172 
3 173 161 160 
3 160 172 173 
3 174 162 161 
3 161 173 174 
3 175 163 162 
3 162 174 175 
3 176 164 163 
3 163 175 176 
3 177 165 164 
3 164 176 177 
3 178 166 165 
3 165 177 178 
3 179 167 166 
3 166 178 179 
3 168 156 167 
3 167 179 168 
3 181 169 168 
3 168 180 181 
3 182 170 169 
3 169 181 182 
3 183 171 170 
3 170 182 183 
3 184 172 171 
3 171 183 184 
3 185 173 172 
3 172 184 185 
3 186 174 173 
3 173 185 186 
3 187 175 174 
3 174 186 187 
3 188 176 175 
3 175 187 188 
3 189 177 176 
3 176 188 189 
3 190 178 177 
3 177 189 190 
3 191 179 178 
3 178 190 191 
3 180 168 179 
3 179 191 180 
3 193 181 180 
3 180 192 193 
3 194 182 181 
3 181 193 194 
3 195 183 182 
3 182 194 195 
3 196 184 183 
3 183 195 196 
3 197 185 184 
3 184 196 197 
3 198 186 185 
3 185 197 198 
3 199 187 186 
3 186 198 199 
3 200 188 187 
3 187 199 200 
3 201 189 188 
3 188 200 201 
3 202 190 189 
3 189 201 202 
3 203 191 190 
3 190 202 203 
3 192 180 191 
3 191 203 192 
3 205 193 192 
3 192 204 205 
3 206 194 193 
3 193 205 206 
3 207 195 194 
3 194 206 207 
3 208 196 195 
3 195 207 208 
3 209 197 196 
3 196 208 209 
3 210 198 197 
3 197 209 210 
3 211 199 198 
3 198 210 211 
3 212 200 199 
3 199 211 212 
3 213 201 200 
3 200 212 213 
3 214 202 201 
3 201 213 214 
3 215 203 202 
3 202 214 215 
3 204 192 203 
3 203 215 204 
3 217 205 204 
3 204 216 217 
3 218 206 205 
3 205 217 218 
3 219 207 206 
3 206 218 219 
3 220 208 207 
3 207 219 220 
3 221 209 208 
3 208 220 221 
3 222 210 209 
3 209 221 222 
3 223 211 210 
3 210 222 223 
3 224 212 211 
3 211 223 224 
3 225 213 212 
3 212 224 225 
3 226 214 213 
3 213 225 226 
3 227 215 214 
3 214 226 227 
3 216 204 215 
3 215 227 216 
3 229 217 216 
3 216 228 229 
3 230 218 217 
3 217 229 230 
3 231 219 218 
3 218 230 231 
3 232 220 219 
3 219 231 232 
3 233 221 220 
3 220 232 233 
3 234 222 221 
3 221 233 234 
3 235 223 222 
3 222 234 235 
3 236 224 223 
3 223 235 236 
3 237 225 224 
3 224 236 237 
3 238 226 225 
3 225 237 238 
3 239 227 226 
3 226 238 239 
3 228 216 227 
3 227 239 228 
3 241 229 228 
3 228 240 241 
3 242 230 229 
3 229 241 242 
3 243 231 230 
3 230 242 243 
3 244 232 231 
3 231 243 244 
3 245 233 232 
3 232 244 245 
3 246 234 233 
3 233 245 246 
3 247 235 234 
3 234 246 247 
3 248 236 235 
3 235 247 248 
3 249 237 236 
3 236 248 249 
3 250 238 237 
3 237 249 250 
3 251 239 238 
3 238 250 251 
3 240 228 239 
3 239 251 240 
3 253 241 240 
3 240 252 253 
3 254 242 241 
3 241 253 254 
3 255 243 242 
3 242 254 255 
3 256 244 243 
3 243 255 256 
3 257 245 244 
3 244 256 257 
3 258 246 245 
3 245 257 258 
3 259 247 246 
3 246 258 259 
3 260 248 247 
3 247 259 260 
3 261 249 248 
3 248 260 261 
3 262 250 249 
3 249 261 262 
3 263 251 250 
3 250 262 263 
3 252 240 251 
3 251 263 252 
3 265 253 252 
3 252 264 265 
3 266 254 253 
3 253 265 266 
3 267 255 254 
3 254 266 267 
3 268 256 255 
3 255 267 268 
3 269 257 256 
3 256 268 269 
3 270 258 257 
3 257 269 270 
3 271 259 258 
3 258 270 271 
3 272 260 259 
3 259 271 272 
3 273 261 260 
3 260 272 273 
3 274 262 261 
3 261 273 274 
3 275 263 262 
3 262 274 275 
3 264 252 263 
3 263 275 264 
3 277 265 264 
3 264 276 277 
3 278 266 265 
3 265 277 278 
3 279 267 266 
3 266 278 279 
3 280 268 267 
3 267 279 280 
3 281 269 268 
3 268 280 281 
3 282 270 269 
3 269 281 282 
3 283 271 270 
3 270 282 283 
3 284 272 271 
3 271 283 284 
3 285 273 272 
3 272 284 285 
3 286 274 273 
3 273 285 286 
3 287 275 274 
3 274 286 287 
3 276 264 275 
3 275 287 276 
3 1 277 276 
3 276 0 1 
3 2 278 277 
3 277 1 2 
3 3 279 278 
3 278 2 3 
3 4 280 279 
3 279 3 4 
3 5 281 280 
3 280 4 5 
3 6 282 281 
3 281 5 6 
3 7 283 282 
3 282 6 7 
3 8 284 283 
3 283 7 8 
3 9 285 284 
3 284 8 9 
3 10 286 285 
3 285 9 10 
3 11 287 286 
3 286 10 11 
3 0 276 287 
3 287 11 0 
