ply
format ascii 1.0
comment VCGLIB generated
element vertex 352
property float x
property float y
property float z
property float nx
property float ny
property float nz
property float texture_u
property float texture_v
element face 640
property list uchar int vertex_indices
end_header
0.25 0 0 5.891094 2.980232e-08 -3.427267e-07 1.000000 0.045455
0.2469551 -0.01136363 -4.967203e-10 5.15678 -2.905697 -2.086163e-07 0.993910 0.022727
0.2386363 -0.0196824 -8.60345e-10 3.08926 -5.130743 -1.031905e-06 0.977273 0.006090
0.2272727 -0.02272728 -9.934406e-10 0.1307975 -6.065569 -5.7742e-07 0.954545 0.000000
0.2159091 -0.01968239 -8.60345e-10 -2.959772 -5.358581 -2.741814e-06 0.931818 0.006090
0.2075904 -0.01136364 -4.967204e-10 -5.287581 -3.131284 -1.817942e-06 0.915181 0.022727
0.2045455 1.986882e-09 8.684935e-17 -6.150111 4.470348e-07 2.682209e-07 0.909091 0.045455
0.2075904 0.01136364 4.967206e-10 -5.287582 3.131283 2.682209e-06 0.915181 0.068182
0.2159091 0.0196824 8.60345e-10 -2.95977 5.358579 3.080815e-06 0.931818 0.084819
0.2272727 0.02272728 9.934406e-10 0.1307996 6.06557 3.688037e-07 0.954545 0.090909
0.2386363 0.0196824 8.60345e-10 3.08926 5.130743 6.705523e-07 0.977273 0.084819
0.2469551 0.01136363 4.967201e-10 5.15678 2.905698 -5.51343e-07 0.993910 0.068182
0.2414815 -2.828335e-09 0.06470475 5.690352 4.470348e-07 1.524725 0.982963 0.045455
0.2385403 -0.01136364 0.0639167 4.98107 -2.905702 1.334674 0.977081 0.022727
0.230505 -0.0196824 0.06176365 2.983999 -5.130737 0.79956 0.961010 0.006090
0.2195286 -0.02272728 0.0588225 0.1263417 -6.065569 0.03385239 0.939057 0.000000
0.2085522 -0.0196824 0.0558814 -2.858902 -5.358596 -0.7660396 0.917104 0.006090
0.2005168 -0.01136364 0.05372835 -5.107397 -3.131292 -1.368528 0.901034 0.022727
0.1975757 -3.27211e-10 0.05294025 -5.940554 2.123415e-07 -1.591771 0.895151 0.045455
0.2005168 0.01136364 0.05372835 -5.107395 3.131295 -1.368528 0.901034 0.068182
0.2085522 0.01968239 0.0558814 -2.858901 5.358597 -0.7660411 0.917104 0.084819
0.2195286 0.02272727 0.0588225 0.1263411 6.06557 0.03385391 0.939057 0.090909
0.230505 0.01968239 0.06176365 2.983999 5.130737 0.7995602 0.961010 0.084819
0.2385403 0.01136363 0.0639167 4.981069 2.905701 1.334676 0.977081 0.068182
0.2165063 -5.463925e-09 0.125 5.101839 1.221895e-06 2.945551 0.933013 0.045455
0.2138694 -0.01136364 0.1234775 4.46591 -2.905687 2.578391 0.927739 0.022727
0.2066651 -0.01968241 0.1193182 2.675382 -5.130737 1.544634 0.913330 0.006090
0.196824 -0.02272728 0.1136364 0.1132813 -6.065569 0.06540349 0.893648 0.000000
0.1869828 -0.0196824 0.1079545 -2.563221 -5.358593 -1.479875 0.873966 0.006090
0.1797785 -0.01136365 0.1037951 -4.57917 -3.131299 -2.643779 0.859557 0.022727
0.1771415 -2.483602e-09 0.1022727 -5.326153 1.441687e-06 -3.075055 0.854283 0.045455
0.1797785 0.01136363 0.1037951 -4.579171 3.131298 -2.643781 0.859557 0.068182
0.1869828 0.01968239 0.1079545 -2.563221 5.358593 -1.479876 0.873966 0.084819
0.196824 0.02272727 0.1136364 0.1132842 6.065569 0.06540264 0.893648 0.090909
0.2066651 0.01968239 0.1193182 2.675385 5.130736 1.544635 0.913330 0.084819
0.2138694 0.01136362 0.1234775 4.46591 2.905687 2.578391 0.927739 0.068182
0.1767767 -7.727155e-09 0.1767767 4.165634 5.066395e-07 4.165631 0.853553 0.045455
0.1746236 -0.01136365 0.1746237 3.646395 -2.905688 3.646401 0.849247 0.022727
0.1687414 -0.01968241 0.1687414 2.184436 -5.130738 2.184435 0.837483 0.006090
0.160706 -0.02272728 0.1607061 0.09248202 -6.065572 0.0924798 0.821412 0.000000
0.1526708 -0.01968241 0.1526708 -2.092868 -5.358588 -2.092868 0.805342 0.006090
0.1467885 -0.01136365 0.1467886 -3.738878 -3.131282 -3.738883 0.793577 0.022727
0.1446355 -4.335337e-09 0.1446355 -4.348792 -6.556511e-07 -4.348783 0.789271 0.045455
0.1467885 0.01136363 0.1467886 -3.738879 3.131285 -3.738881 0.793577 0.068182
0.1526708 0.01968239 0.1526708 -2.09287 5.358588 -2.092866 0.805342 0.084819
0.160706 0.02272726 0.1607061 0.09247927 6.065573 0.09248313 0.821412 0.090909
0.1687414 0.01968239 0.1687414 2.184436 5.130736 2.184436 0.837483 0.084819
0.1746236 0.01136362 0.1746237 3.646397 2.905687 3.646401 0.849247 0.068182
0.125 -9.463795e-09 0.2165063 2.945551 1.192093e-07 5.10184 0.750000 0.045455
0.1234775 -0.01136365 0.2138694 2.578388 -2.905693 4.465904 0.746955 0.022727
0.1193181 -0.01968241 0.2066651 1.54463 -5.130745 2.67538 0.738636 0.006090
0.1136364 -0.02272728 0.196824 0.06540428 -6.065569 0.1132869 0.727273 0.000000
0.1079545 -0.01968241 0.1869828 -1.479876 -5.358593 -2.563219 0.715909 0.006090
0.1037951 -0.01136365 0.1797785 -2.643785 -3.131278 -4.579175 0.707590 0.022727
0.1022727 -5.756225e-09 0.1771416 -3.075058 2.019107e-06 -5.32616 0.704545 0.045455
0.1037951 0.01136363 0.1797785 -2.643787 3.131277 -4.579175 0.707590 0.068182
0.1079545 0.01968239 0.1869828 -1.479873 5.358593 -2.56322 0.715909 0.084819
0.1136364 0.02272726 0.196824 0.0654071 6.065569 0.1132852 0.727273 0.090909
0.1193181 0.01968239 0.2066651 1.54463 5.130744 2.67538 0.738636 0.084819
0.1234775 0.01136362 0.2138694 2.578388 2.905694 4.465905 0.746955 0.068182
0.06470475 -1.055549e-08 0.2414815 1.524727 1.728535e-06 5.690352 0.629410 0.045455
0.0639167 -0.01136365 0.2385403 1.334678 -2.905703 4.981068 0.627833 0.022727
0.06176365 -0.01968241 0.230505 0.7995595 -5.130738 2.983996 0.623527 0.006090
0.0588225 -0.02272728 0.2195286 0.03385354 -6.065571 0.1263411 0.617645 0.000000
0.0558814 -0.01968241 0.2085522 -0.7660428 -5.358586 -2.85891 0.611763 0.006090
0.05372835 -0.01136365 0.2005169 -1.368529 -3.131301 -5.1074 0.607457 0.022727
0.05294025 -6.64943e-09 0.1975757 -1.591767 1.721084e-06 -5.940547 0.605881 0.045455
0.05372835 0.01136363 0.2005169 -1.368525 3.131298 -5.107402 0.607457 0.068182
0.0558814 0.01968239 0.2085522 -0.7660427 5.358587 -2.858909 0.611763 0.084819
0.0588225 0.02272726 0.2195286 0.03385229 6.065571 0.1263414 0.617645 0.090909
0.06176365 0.01968239 0.230505 0.7995624 5.130736 2.983997 0.623527 0.084819
0.0639167 0.01136362 0.2385403 1.334677 2.9057 4.98107 0.627833 0.068182
-1.092785e-08 -1.092785e-08 0.25 1.192093e-07 3.576279e-07 5.891109 0.500000 0.045455
-1.079475e-08 -0.01136365 0.2469552 -1.231208e-06 -2.905683 5.156769 0.500000 0.022727
-1.043113e-08 -0.01968241 0.2386363 2.414454e-06 -5.13076 3.089244 0.500000 0.006090
-9.934405e-09 -0.02272728 0.2272727 -5.7742e-08 -6.065571 0.130799 0.500000 0.000000
-9.437685e-09 -0.01968241 0.2159091 1.017004e-06 -5.35858 -2.959769 0.500000 0.006090
-9.07406e-09 -0.01136365 0.2075904 2.255663e-06 -3.131282 -5.287583 0.500000 0.022727
-8.940965e-09 -6.954085e-09 0.2045455 -5.7742e-08 4.023314e-07 -6.150111 0.500000 0.045455
-9.07406e-09 0.01136363 0.2075904 -2.130866e-06 3.131282 -5.287582 0.500000 0.068182
-9.437685e-09 0.01968239 0.2159091 -9.187497e-07 5.35858 -2.959769 0.500000 0.084819
-9.934405e-09 0.02272726 0.2272727 8.288771e-08 6.065571 0.1307991 0.500000 0.090909
-1.043113e-08 0.01968239 0.2386363 -2.486631e-06 5.130758 3.089245 0.500000 0.084819
-1.079475e-08 0.01136362 0.2469552 1.166016e-06 2.905682 5.156771 0.500000 0.068182
-0.0647048 -1.055549e-08 0.2414815 -1.524729 -1.192093e-07 5.690351 0.370590 0.045455
-0.0639167 -0.01136365 0.2385403 -1.334675 -2.905704 4.981069 0.372167 0.022727
-0.06176365 -0.01968241 0.230505 -0.7995614 -5.130739 2.983997 0.376473 0.006090
-0.05882255 -0.02272728 0.2195286 -0.03385308 -6.06557 0.1263426 0.382355 0.000000
-0.0558814 -0.01968241 0.2085522 0.7660419 -5.358588 -2.858908 0.388237 0.006090
-0.05372835 -0.01136365 0.2005169 1.368527 -3.131297 -5.107402 0.392543 0.022727
-0.0529403 -6.64943e-09 0.1975757 1.591773 9.685755e-07 -5.940547 0.394119 0.045455
-0.05372835 0.01136363 0.2005169 1.368528 3.131298 -5.107401 0.392543 0.068182
-0.0558814 0.01968239 0.2085522 0.7660423 5.358586 -2.858908 0.388237 0.084819
-0.05882255 0.02272726 0.2195286 -0.03385369 6.065571 0.1263427 0.382355 0.090909
-0.06176365 0.01968239 0.230505 -0.7995594 5.130736 2.983999 0.376473 0.084819
-0.0639167 0.01136362 0.2385403 -1.334678 2.905705 4.98107 0.372167 0.068182
-0.125 -9.463795e-09 0.2165063 -2.945551 1.758337e-06 5.101839 0.250000 0.045455
-0.1234775 -0.01136365 0.2138694 -2.578391 -2.905689 4.46591 0.253045 0.022727
-0.1193182 -0.01968241 0.2066651 -1.544634 -5.130738 2.675381 0.261364 0.006090
-0.1136364 -0.02272728 0.196824 -0.06540331 -6.06557 0.1132811 0.272727 0.000000
-0.1079545 -0.0196824 0.1869828 1.479874 -5.358593 -2.563221 0.284091 0.006090
-0.1037951 -0.01136365 0.1797785 2.64378 -3.131298 -4.579169 0.292410 0.022727
-0.1022727 -5.756225e-09 0.1771415 3.075056 -5.215406e-08 -5.326152 0.295455 0.045455
-0.1037951 0.01136363 0.1797785 2.643783 3.131297 -4.579169 0.292410 0.068182
-0.1079545 0.01968239 0.1869828 1.479876 5.358593 -2.563219 0.284091 0.084819
-0.1136364 0.02272726 0.196824 -0.06540244 6.065571 0.1132838 0.272727 0.090909
-0.1193182 0.01968239 0.2066651 -1.544634 5.130736 2.675383 0.261364 0.084819
-0.1234775 0.01136362 0.2138694 -2.578391 2.905686 4.465911 0.253045 0.068182
-0.1767767 -7.727155e-09 0.1767767 -4.165634 1.817942e-06 4.165631 0.146447 0.045455
-0.1746236 -0.01136365 0.1746237 -3.646395 -2.905689 3.646401 0.150753 0.022727
-0.1687414 -0.01968241 0.1687414 -2.184436 -5.130738 2.184435 0.162517 0.006090
-0.160706 -0.02272728 0.1607061 -0.09247971 -6.065572 0.09248222 0.178588 0.000000
-0.1526708 -0.01968241 0.1526708 2.09287 -5.358587 -2.092867 0.194658 0.006090
-0.1467885 -0.01136365 0.1467886 3.738878 -3.131285 -3.738882 0.206423 0.022727
-0.1446355 -4.335337e-09 0.1446355 4.348789 2.376735e-06 -4.348786 0.210729 0.045455
-0.1467885 0.01136363 0.1467886 3.738876 3.131284 -3.738886 0.206423 0.068182
-0.1526708 0.01968239 0.1526708 2.092868 5.358588 -2.092868 0.194658 0.084819
-0.160706 0.02272726 0.1607061 -0.0924819 6.065573 0.09247997 0.178588 0.090909
-0.1687414 0.01968239 0.1687414 -2.184437 5.130737 2.184435 0.162517 0.084819
-0.1746236 0.01136362 0.1746237 -3.646396 2.905687 3.646402 0.150753 0.068182
-0.2165063 -5.463925e-09 0.125 -5.101848 5.960464e-08 2.945552 0.066987 0.045455
-0.2138694 -0.01136364 0.1234776 -4.465906 -2.905679 2.57839 0.072261 0.022727
-0.2066651 -0.01968241 0.1193182 -2.675379 -5.130743 1.54463 0.086670 0.006090
-0.196824 -0.02272728 0.1136364 -0.1132824 -6.065569 0.06540146 0.106352 0.000000
-0.1869828 -0.0196824 0.1079545 2.563227 -5.358589 -1.479877 0.126035 0.006090
-0.1797785 -0.01136365 0.1037952 4.57917 -3.131304 -2.643786 0.140443 0.022727
-0.1771415 -2.483602e-09 0.1022727 5.32615 5.625188e-07 -3.075049 0.145717 0.045455
-0.1797785 0.01136363 0.1037952 4.579172 3.131303 -2.643784 0.140443 0.068182
-0.1869828 0.01968239 0.1079545 2.563227 5.358587 -1.479878 0.126035 0.084819
-0.196824 0.02272727 0.1136364 -0.113283 6.065569 0.06540513 0.106352 0.090909
-0.2066651 0.01968239 0.1193182 -2.67538 5.130744 1.544631 0.086670 0.084819
-0.2138694 0.01136362 0.1234776 -4.465905 2.905681 2.578393 0.072261 0.068182
-0.2414815 -2.828334e-09 0.06470475 -5.690351 -9.23872e-07 1.524725 0.017037 0.045455
-0.2385403 -0.01136364 0.06391665 -4.981069 -2.905703 1.334674 0.022919 0.022727
-0.230505 -0.0196824 0.0617636 -2.984 -5.130738 0.7995584 0.038990 0.006090
-0.2195286 -0.02272728 0.0588225 -0.1263429 -6.065569 0.03385328 0.060943 0.000000
-0.2085522 -0.0196824 0.05588135 2.858901 -5.358595 -0.7660412 0.082896 0.006090
-0.2005168 -0.01136364 0.0537283 5.107397 -3.131289 -1.368526 0.098966 0.022727
-0.1975757 -3.2721e-10 0.05294025 5.940555 -7.972121e-07 -1.591773 0.104849 0.045455
-0.2005168 0.01136364 0.0537283 5.107397 3.131291 -1.368524 0.098966 0.068182
-0.2085522 0.01968239 0.05588135 2.8589 5.358597 -0.7660368 0.082896 0.084819
-0.2195286 0.02272727 0.0588225 -0.1263432 6.065569 0.03385361 0.060943 0.090909
-0.230505 0.01968239 0.0617636 -2.983999 5.130738 0.79956 0.038990 0.084819
-0.2385403 0.01136363 0.06391665 -4.981069 2.905705 1.334672 0.022919 0.068182
-0.25 9.553425e-16 -2.185569e-08 -5.891094 0 -1.639128e-07 0.000000 0.045455
-0.2469551 -0.01136363 -2.208622e-08 -5.156779 -2.905697 -6.519258e-07 0.006090 0.022727
-0.2386363 -0.0196824 -2.17226e-08 -3.08926 -5.130743 4.470348e-08 0.022727 0.006090
-0.2272727 -0.02272728 -2.086225e-08 -0.1307975 -6.065569 -4.572794e-07 0.045455 0.000000
-0.2159091 -0.01968239 -1.973572e-08 2.959772 -5.35858 1.996756e-06 0.068182 0.006090
-0.2075904 -0.01136364 -1.864485e-08 5.287581 -3.131284 1.626089e-06 0.084819 0.022727
-0.2045455 1.986882e-09 -1.788193e-08 6.150112 7.338822e-07 2.998859e-07 0.090909 0.045455
-0.2075904 0.01136364 -1.76514e-08 5.287582 3.131283 -1.829118e-06 0.084819 0.068182
-0.2159091 0.0196824 -1.801503e-08 2.95977 5.358579 -1.961365e-06 0.068182 0.084819
-0.2272727 0.02272728 -1.887537e-08 -0.1307995 6.065569 6.505288e-07 0.045455 0.090909
-0.2386363 0.0196824 -2.000191e-08 -3.089261 5.130743 -2.086163e-07 0.022727 0.084819
-0.2469551 0.01136363 -2.109278e-08 -5.15678 2.905697 3.874302e-07 0.006090 0.068182
-0.2414815 2.828336e-09 -0.06470475 -5.690352 8.940697e-08 -1.524726 0.017037 0.045455
-0.2385403 -0.01136363 -0.0639167 -4.981069 -2.905701 -1.334675 0.022919 0.022727
-0.230505 -0.01968239 -0.06176365 -2.983998 -5.130737 -0.799561 0.038990 0.006090
-0.2195286 -0.02272727 -0.0588225 -0.126342 -6.065569 -0.03385378 0.060943 0.000000
-0.2085522 -0.01968239 -0.0558814 2.858902 -5.358596 0.7660391 0.082896 0.006090
-0.2005168 -0.01136363 -0.05372835 5.107397 -3.131292 1.368526 0.098966 0.022727
-0.1975757 4.300974e-09 -0.05294025 5.940555 -1.490116e-07 1.591771 0.104849 0.045455
-0.2005168 0.01136365 -0.05372835 5.107395 3.131293 1.368529 0.098966 0.068182
-0.2085522 0.0196824 -0.0558814 2.858901 5.358596 0.7660431 0.082896 0.084819
-0.2195286 0.02272728 -0.0588225 -0.1263418 6.06557 -0.03385299 0.060943 0.090909
-0.230505 0.0196824 -0.06176365 -2.984 5.130735 -0.7995611 0.038990 0.084819
-0.2385403 0.01136363 -0.0639167 -4.981069 2.905701 -1.334676 0.022919 0.068182
-0.2165063 5.463925e-09 -0.125 -5.101836 1.847744e-06 -2.945547 0.066987 0.045455
-0.2138693 -0.01136363 -0.1234776 -4.465908 -2.905693 -2.578398 0.072261 0.022727
-0.2066651 -0.01968239 -0.1193182 -2.67538 -5.130734 -1.544633 0.086670 0.006090
-0.1968239 -0.02272726 -0.1136364 -0.1132731 -6.065571 -0.06539913 0.106352 0.000000
-0.1869827 -0.01968239 -0.1079546 2.56323 -5.358582 1.479884 0.126035 0.006090
-0.1797785 -0.01136363 -0.1037952 4.579175 -3.131299 2.643785 0.140443 0.022727
-0.1771415 6.457365e-09 -0.1022727 5.32615 -7.450581e-08 3.075049 0.145717 0.045455
-0.1797785 0.01136365 -0.1037952 4.579174 3.131299 2.643786 0.140443 0.068182
-0.1869827 0.0196824 -0.1079546 2.563232 5.358583 1.479883 0.126035 0.084819
-0.1968239 0.02272728 -0.1136364 -0.1132739 6.06557 -0.06539868 0.106352 0.090909
-0.2066651 0.0196824 -0.1193182 -2.675384 5.130733 -1.544633 0.086670 0.084819
-0.2138693 0.01136363 -0.1234776 -4.46591 2.90569 -2.578398 0.072261 0.068182
-0.1767766 7.727155e-09 -0.1767767 -4.165641 1.192093e-07 -4.165643 0.146447 0.045455
-0.1746236 -0.01136363 -0.1746237 -3.646393 -2.905679 -3.646396 0.150753 0.022727
-0.1687413 -0.01968239 -0.1687414 -2.184432 -5.130748 -2.184431 0.162517 0.006090
-0.160706 -0.02272726 -0.1607061 -0.09248537 -6.065571 -0.09248388 0.178588 0.000000
-0.1526708 -0.01968239 -0.1526708 2.092868 -5.358588 2.092867 0.194659 0.006090
-0.1467885 -0.01136363 -0.1467886 3.738878 -3.131282 3.738885 0.206423 0.022727
-0.1446355 8.3091e-09 -0.1446355 4.348791 -3.088266e-06 4.348785 0.210729 0.045455
-0.1467885 0.01136365 -0.1467886 3.738878 3.131285 3.738883 0.206423 0.068182
-0.1526708 0.01968241 -0.1526708 2.092869 5.358587 2.092867 0.194659 0.084819
-0.160706 0.02272728 -0.1607061 -0.09248446 6.065571 -0.09248548 0.178588 0.090909
-0.1687413 0.01968241 -0.1687414 -2.18443 5.130747 -2.184433 0.162517 0.084819
-0.1746236 0.01136364 -0.1746237 -3.646396 2.905677 -3.646395 0.150753 0.068182
-0.125 9.463795e-09 -0.2165063 -2.945554 -5.960464e-07 -5.101838 0.250000 0.045455
-0.1234775 -0.01136362 -0.2138694 -2.578391 -2.905693 -4.465903 0.253045 0.022727
-0.1193181 -0.01968239 -0.2066651 -1.54463 -5.130744 -2.67538 0.261364 0.006090
-0.1136364 -0.02272726 -0.196824 -0.06540495 -6.065569 -0.1132869 0.272727 0.000000
-0.1079545 -0.01968239 -0.1869828 1.479876 -5.358594 2.563219 0.284091 0.006090
-0.1037951 -0.01136363 -0.1797785 2.643785 -3.131278 4.579176 0.292410 0.022727
-0.1022727 9.729985e-09 -0.1771416 3.075057 8.97795e-07 5.326161 0.295455 0.045455
-0.1037951 0.01136365 -0.1797785 2.643786 3.131277 4.579175 0.292410 0.068182
-0.1079545 0.01968241 -0.1869828 1.479873 5.358593 2.56322 0.284091 0.084819
-0.1136364 0.02272728 -0.196824 -0.06540704 6.065569 -0.1132854 0.272727 0.090909
-0.1193181 0.01968241 -0.2066651 -1.544632 5.130744 -2.675379 0.261364 0.084819
-0.1234775 0.01136364 -0.2138694 -2.57839 2.905694 -4.465904 0.253045 0.068182
-0.06470475 1.055549e-08 -0.2414815 -1.524733 5.066395e-07 -5.690363 0.370591 0.045455
-0.06391665 -0.01136362 -0.2385404 -1.334674 -2.905693 -4.981062 0.372167 0.022727
-0.0617636 -0.01968239 -0.230505 -0.7995582 -5.130748 -2.983988 0.376473 0.006090
-0.0588225 -0.02272726 -0.2195286 -0.03385393 -6.06557 -0.1263425 0.382355 0.000000
-0.05588135 -0.01968239 -0.2085522 0.7660419 -5.358586 2.858909 0.388237 0.006090
-0.0537283 -0.01136363 -0.2005169 1.368527 -3.131298 5.107401 0.392543 0.022727
-0.05294025 1.062319e-08 -0.1975757 1.591769 1.061708e-06 5.940547 0.394120 0.045455
-0.0537283 0.01136365 -0.2005169 1.368525 3.131296 5.107404 0.392543 0.068182
-0.05588135 0.01968241 -0.2085522 0.766042 5.358587 2.858909 0.388237 0.084819
-0.0588225 0.02272728 -0.2195286 -0.03385302 6.065571 -0.1263431 0.382355 0.090909
-0.0617636 0.01968241 -0.230505 -0.7995583 5.13075 -2.983988 0.376473 0.084819
-0.06391665 0.01136364 -0.2385404 -1.334673 2.905691 -4.981063 0.372167 0.068182
2.98122e-09 1.092785e-08 -0.25 1.609325e-06 -9.536743e-07 -5.89111 0.500000 0.045455
2.94491e-09 -0.01136362 -0.2469552 2.635643e-06 -2.905682 -5.156771 0.500000 0.022727
2.84571e-09 -0.01968239 -0.2386363 -1.059379e-06 -5.130759 -3.089245 0.500000 0.006090
2.7102e-09 -0.02272726 -0.2272727 3.445894e-08 -6.065571 -0.1307991 0.500000 0.000000
2.57469e-09 -0.01968239 -0.2159091 -1.007691e-06 -5.358579 2.959769 0.500000 0.006090
2.47549e-09 -0.01136363 -0.2075904 -2.169982e-06 -3.131283 5.287583 0.500000 0.022727
2.43918e-09 1.092785e-08 -0.2045455 -7.82311e-08 1.490116e-07 6.150111 0.500000 0.045455
2.47549e-09 0.01136365 -0.2075904 2.078712e-06 3.131283 5.287583 0.500000 0.068182
2.57469e-09 0.01968241 -0.2159091 9.741634e-07 5.358579 2.959769 0.500000 0.084819
2.7102e-09 0.02272728 -0.2272727 -9.313226e-08 6.06557 -0.1307992 0.500000 0.090909
2.84571e-09 0.01968241 -0.2386363 2.333894e-06 5.130758 -3.089245 0.500000 0.084819
2.94491e-09 0.01136364 -0.2469552 8.791685e-07 2.905684 -5.15677 0.500000 0.068182
0.06470475 1.055549e-08 -0.2414815 1.524727 -1.221895e-06 -5.690352 0.629409 0.045455
0.0639167 -0.01136362 -0.2385403 1.334677 -2.9057 -4.98107 0.627833 0.022727
0.06176365 -0.01968239 -0.230505 0.7995624 -5.130737 -2.983997 0.623527 0.006090
0.0588225 -0.02272726 -0.2195286 0.03385234 -6.065571 -0.126342 0.617645 0.000000
0.05588135 -0.01968239 -0.2085522 -0.766042 -5.358588 2.858908 0.611763 0.006090
0.0537283 -0.01136363 -0.2005169 -1.368525 -3.131295 5.107404 0.607457 0.022727
0.05294025 1.062319e-08 -0.1975757 -1.591769 -7.82311e-07 5.940547 0.605881 0.045455
0.0537283 0.01136365 -0.2005169 -1.368528 3.131298 5.107401 0.607457 0.068182
0.05588135 0.01968241 -0.2085522 -0.7660421 5.358586 2.858909 0.611763 0.084819
0.0588225 0.02272728 -0.2195286 0.03385352 6.06557 -0.1263419 0.617645 0.090909
0.06176365 0.01968241 -0.230505 0.7995598 5.130736 -2.983998 0.623527 0.084819
0.0639167 0.01136364 -0.2385403 1.334679 2.905702 -4.98107 0.627833 0.068182
0.125 9.463795e-09 -0.2165063 2.945552 8.046627e-07 -5.101839 0.750000 0.045455
0.1234775 -0.01136362 -0.2138694 2.57839 -2.905694 -4.465904 0.746955 0.022727
0.1193181 -0.01968239 -0.2066651 1.544632 -5.130743 -2.67538 0.738636 0.006090
0.1136364 -0.02272726 -0.196824 0.06540732 -6.065569 -0.1132852 0.727273 0.000000
0.1079545 -0.01968239 -0.1869828 -1.479873 -5.358593 2.563219 0.715909 0.006090
0.1037951 -0.01136363 -0.1797785 -2.643787 -3.131277 4.579175 0.707590 0.022727
0.1022727 9.729985e-09 -0.1771416 -3.075058 -1.251698e-06 5.32616 0.704545 0.045455
0.1037951 0.01136365 -0.1797785 -2.643785 3.131279 4.579176 0.707590 0.068182
0.1079545 0.01968241 -0.1869828 -1.479876 5.358593 2.563219 0.715909 0.084819
0.1136364 0.02272728 -0.196824 0.06540503 6.065569 -0.1132871 0.727273 0.090909
0.1193181 0.01968241 -0.2066651 1.544631 5.130744 -2.67538 0.738636 0.084819
0.1234775 0.01136364 -0.2138694 2.578389 2.905692 -4.465904 0.746955 0.068182
0.1767768 7.72715e-09 -0.1767766 4.165636 1.966953e-06 -4.165633 0.853554 0.045455
0.1746237 -0.01136363 -0.1746236 3.646389 -2.905694 -3.646395 0.849247 0.022727
0.1687414 -0.01968239 -0.1687413 2.184429 -5.130749 -2.184432 0.837483 0.006090
0.1607061 -0.02272726 -0.160706 0.09248351 -6.065571 -0.09248605 0.821412 0.000000
0.1526708 -0.01968239 -0.1526708 -2.092868 -5.358588 2.092867 0.805342 0.006090
0.1467886 -0.01136363 -0.1467885 -3.738883 -3.131283 3.738879 0.793577 0.022727
0.1446355 8.309095e-09 -0.1446355 -4.348785 -1.229346e-07 4.34879 0.789271 0.045455
0.1467886 0.01136365 -0.1467885 -3.738883 3.131284 3.738878 0.793577 0.068182
0.1526708 0.01968241 -0.1526708 -2.092867 5.358588 2.09287 0.805342 0.084819
0.1607061 0.02272728 -0.160706 0.09248514 6.06557 -0.09248438 0.821412 0.090909
0.1687414 0.01968241 -0.1687413 2.184432 5.130746 -2.184433 0.837483 0.084819
0.1746237 0.01136364 -0.1746236 3.646391 2.905693 -3.646394 0.849247 0.068182
0.2165064 5.46392e-09 -0.1249999 5.101848 3.278255e-07 -2.945549 0.933013 0.045455
0.2138695 -0.01136363 -0.1234775 4.465905 -2.90568 -2.578388 0.927739 0.022727
0.2066652 -0.01968239 -0.1193181 2.675375 -5.130745 -1.544627 0.913330 0.006090
0.196824 -0.02272727 -0.1136363 0.1132752 -6.06557 -0.06539974 0.893648 0.000000
0.1869828 -0.01968239 -0.1079545 -2.563224 -5.358593 1.479877 0.873966 0.006090
0.1797785 -0.01136363 -0.1037951 -4.579178 -3.131277 2.643782 0.859557 0.022727
0.1771416 6.457365e-09 -0.1022727 -5.326162 -4.731119e-07 3.075054 0.854283 0.045455
0.1797785 0.01136365 -0.1037951 -4.579175 3.131279 2.643784 0.859557 0.068182
0.1869828 0.01968241 -0.1079545 -2.563223 5.358592 1.479876 0.873966 0.084819
0.196824 0.02272728 -0.1136363 0.113275 6.065572 -0.06539959 0.893648 0.090909
0.2066652 0.01968241 -0.1193181 2.675376 5.130742 -1.544627 0.913330 0.084819
0.2138695 0.01136363 -0.1234775 4.465905 2.905679 -2.578391 0.927739 0.068182
0.2414815 2.828332e-09 -0.0647047 5.690355 -5.662441e-07 -1.524722 0.982963 0.045455
0.2385403 -0.01136363 -0.06391665 4.981071 -2.905702 -1.334673 0.977081 0.022727
0.230505 -0.01968239 -0.0617636 2.983999 -5.130738 -0.7995577 0.961010 0.006090
0.2195286 -0.02272727 -0.05882245 0.1263407 -6.065569 -0.03385299 0.939057 0.000000
0.2085522 -0.01968239 -0.05588135 -2.858902 -5.358595 0.7660415 0.917104 0.006090
0.2005168 -0.01136363 -0.0537283 -5.107396 -3.131293 1.368528 0.901034 0.022727
0.1975757 4.300972e-09 -0.0529402 -5.940554 1.132488e-06 1.591767 0.895151 0.045455
0.2005168 0.01136365 -0.0537283 -5.107398 3.131291 1.368525 0.901034 0.068182
0.2085522 0.0196824 -0.05588135 -2.858901 5.358597 0.7660391 0.917104 0.084819
0.2195286 0.02272728 -0.05882245 0.1263419 6.06557 -0.03385248 0.939057 0.090909
0.230505 0.0196824 -0.0617636 2.984 5.130738 -0.7995588 0.961010 0.084819
0.2385403 0.01136363 -0.06391665 4.981072 2.905702 -1.334671 0.977081 0.068182
0.2478 0.005 0 0 2.945244 1.276635e-07 1.000000 0.500000
0.1239 0.005 0 -4.823847e-09 3.337942 1.327973e-07 0.750000 0.500000
0.2430386 0.004999998 0.04834338 -4.253885e-10 2.945242 1.156172e-07 0.990393 0.402455
0.1215193 0.004999999 0.02417169 -4.821071e-10 3.337941 1.310329e-07 0.745196 0.451227
0.2289373 0.004999996 0.09482895 -5.11337e-09 2.945244 1.343493e-07 0.961940 0.308658
0.1144687 0.004999998 0.04741447 -2.855578e-09 3.337943 1.380228e-07 0.730970 0.404329
0.2060381 0.004999994 0.1376703 -6.499596e-09 2.945243 1.491968e-07 0.915735 0.222215
0.1030191 0.004999997 0.06883515 -4.772442e-09 3.337943 1.565252e-07 0.707867 0.361107
0.175221 0.004999992 0.175221 4.612086e-09 2.945245 1.294553e-07 0.853553 0.146447
0.08761052 0.004999996 0.08761052 -1.110315e-08 3.33794 1.707775e-07 0.676777 0.323223
0.1376703 0.004999991 0.2060381 1.348533e-08 2.945243 1.166074e-07 0.777785 0.084265
0.06883514 0.004999995 0.1030191 2.158507e-08 3.337943 1.329725e-07 0.638893 0.292133
0.09482894 0.00499999 0.2289373 -1.050663e-09 2.945244 1.374511e-07 0.691342 0.038060
0.04741447 0.004999995 0.1144687 4.137857e-08 3.337944 1.217851e-07 0.595671 0.269030
0.04834337 0.004999989 0.2430386 -1.189647e-08 2.945242 1.343313e-07 0.597545 0.009607
0.02417169 0.004999995 0.1215193 -7.288423e-08 3.337941 1.709436e-07 0.548773 0.254804
1.517337e-17 0.004999989 0.2478 9.505005e-09 2.945243 1.251645e-07 0.500000 0.000000
7.586686e-18 0.004999994 0.1239 2.512882e-08 3.337942 1.543951e-07 0.500000 0.250000
-0.04834337 0.004999989 0.2430386 -2.415539e-09 2.945242 1.413212e-07 0.402455 0.009607
-0.02417169 0.004999995 0.1215193 4.378732e-08 3.337941 1.454824e-07 0.451227 0.254804
-0.09482894 0.00499999 0.2289373 4.742633e-09 2.945244 1.285378e-07 0.308658 0.038060
-0.04741447 0.004999995 0.1144687 -4.876262e-08 3.337943 1.396117e-07 0.404329 0.269030
-0.1376703 0.004999991 0.2060381 -8.216574e-09 2.945243 1.201279e-07 0.222215 0.084265
-0.06883514 0.004999995 0.1030191 -7.655862e-09 3.337943 1.422797e-07 0.361107 0.292133
-0.175221 0.004999992 0.175221 -1.026341e-08 2.945244 1.306258e-07 0.146447 0.146447
-0.08761052 0.004999996 0.08761052 1.200215e-08 3.33794 1.580327e-07 0.323223 0.323223
-0.2060381 0.004999994 0.1376703 7.624932e-09 2.945243 1.465396e-07 0.084265 0.222215
-0.1030191 0.004999997 0.06883515 -1.565261e-09 3.337943 1.557229e-07 0.292133 0.361107
-0.2289373 0.004999996 0.09482895 7.947932e-09 2.945243 1.348899e-07 0.038060 0.308658
-0.1144687 0.004999998 0.04741447 1.660783e-12 3.337944 1.437381e-07 0.269030 0.404329
-0.2430386 0.004999998 0.04834338 4.253866e-10 2.945242 1.156172e-07 0.009607 0.402455
-0.1215193 0.004999999 0.02417169 4.821098e-10 3.337941 1.310328e-07 0.254804 0.451227
-0.2478 0.005 3.034675e-17 2.411925e-09 2.945244 1.260794e-07 0.000000 0.500000
-0.1239 0.005 1.517337e-17 1.818862e-24 3.337942 1.286092e-07 0.250000 0.500000
-0.2430386 0.005000002 -0.04834338 2.314619e-09 2.945242 1.338554e-07 0.009607 0.597545
-0.1215193 0.005000001 -0.02417169 1.215861e-12 3.337941 1.681814e-07 0.254804 0.548773
-0.2289373 0.005000004 -0.09482895 -2.519629e-09 2.945244 1.217848e-07 0.038060 0.691342
-0.1144687 0.005000002 -0.04741447 -3.040957e-09 3.337943 1.63681e-07 0.269030 0.595671
-0.2060381 0.005000006 -0.1376703 2.167531e-09 2.945243 1.076186e-07 0.084265 0.777785
-0.1030191 0.005000003 -0.06883515 -8.865706e-09 3.337943 1.487531e-07 0.292133 0.638893
-0.175221 0.005000007 -0.175221 -2.042266e-08 2.945245 1.177599e-07 0.146447 0.853553
-0.08761052 0.005000004 -0.08761052 -2.497067e-08 3.33794 1.450641e-07 0.323223 0.676777
-0.1376703 0.005000009 -0.2060381 -2.189746e-08 2.945243 1.402494e-07 0.222215 0.915735
-0.06883514 0.005000005 -0.1030191 3.098149e-09 3.337943 1.279202e-07 0.361107 0.707867
-0.09482894 0.00500001 -0.2289373 -1.050663e-09 2.945244 1.374511e-07 0.308658 0.961940
-0.04741447 0.005000005 -0.1144687 4.137857e-08 3.337944 1.217851e-07 0.404329 0.730970
-0.04834337 0.005000011 -0.2430386 2.491642e-10 2.945242 1.466704e-07 0.402455 0.990393
-0.02417169 0.005000005 -0.1215193 2.171926e-08 3.337941 1.521258e-07 0.451227 0.745196
-4.552011e-17 0.005000011 -0.2478 -8.881784e-16 2.945243 1.439009e-07 0.500000 1.000000
-2.276006e-17 0.005000005 -0.1239 -8.881784e-16 3.337942 1.630876e-07 0.500000 0.750000
0.04834337 0.005000011 -0.2430386 -2.415539e-09 2.945242 1.413212e-07 0.597545 0.990393
0.02417169 0.005000005 -0.1215193 -3.181671e-08 3.337941 1.599539e-07 0.548773 0.745196
0.09482894 0.00500001 -0.2289373 4.742633e-09 2.945244 1.285378e-07 0.691342 0.961940
0.04741447 0.005000005 -0.1144687 -4.876262e-08 3.337943 1.396117e-07 0.595671 0.730970
0.1376703 0.005000009 -0.2060381 2.723464e-08 2.945243 1.351132e-07 0.777785 0.915735
0.06883514 0.005000005 -0.1030191 -7.655862e-09 3.337943 1.422797e-07 0.638893 0.707867
0.175221 0.005000007 -0.175221 2.207772e-08 2.945244 1.228258e-07 0.853553 0.853553
0.08761052 0.005000004 -0.08761052 3.726598e-08 3.33794 1.505376e-07 0.676777 0.676777
0.2060381 0.005000006 -0.1376703 -7.938643e-09 2.945243 1.076642e-07 0.915735 0.777785
0.1030191 0.005000003 -0.06883515 1.223385e-08 3.337943 1.364285e-07 0.707867 0.638893
0.2289373 0.005000004 -0.09482895 -7.245613e-10 2.945243 1.265579e-07 0.961940 0.691342
0.1144687 0.005000002 -0.04741447 1.515976e-08 3.337944 1.677277e-07 0.730970 0.595671
0.2430386 0.005000002 -0.04834338 -5.607365e-09 2.945242 1.296647e-07 0.990393 0.597545
0.1215193 0.005000001 -0.02417169 2.278754e-09 3.337941 1.549173e-07 0.745196 0.548773
3 13 1 0 
3 0 12 13 
3 14 2 1 
3 1 13 14 
3 15 3 2 
3 2 14 15 
3 16 4 3 
3 3 15 16 
3 17 5 4 
3 4 16 17 
3 18 6 5 
3 5 17 18 
3 19 7 6 
3 6 18 19 
3 20 8 7 
3 7 19 20 
3 21 9 8 
3 8 20 21 
3 22 10 9 
3 9 21 22 
3 23 11 10 
3 10 22 23 
3 12 0 11 
3 11 23 12 
3 25 13 12 
3 12 24 25 
3 26 14 13 
3 13 25 26 
3 27 15 14 
3 14 26 27 
3 28 16 15 
3 15 27 28 
3 29 17 16 
3 16 28 29 
3 30 18 17 
3 17 29 30 
3 31 19 18 
3 18 30 31 
3 32 20 19 
3 19 31 32 
3 33 21 20 
3 20 32 33 
3 34 22 21 
3 21 33 34 
3 35 23 22 
3 22 34 35 
3 24 12 23 
3 23 35 24 
3 37 25 24 
3 24 36 37 
3 38 26 25 
3 25 37 38 
3 39 27 26 
3 26 38 39 
3 40 28 27 
3 27 39 40 
3 41 29 28 
3 28 40 41 
3 42 30 29 
3 29 41 42 
3 43 31 30 
3 30 42 43 
3 44 32 31 
3 31 43 44 
3 45 33 32 
3 32 44 45 
3 46 34 33 
3 33 45 46 
3 47 35 34 
3 34 46 47 
3 36 24 35 
3 35 47 36 
3 49 37 36 
3 36 48 49 
3 50 38 37 
3 37 49 50 
3 51 39 38 
3 38 50 51 
3 52 40 39 
3 39 51 52 
3 53 41 40 
3 40 52 53 
3 54 42 41 
3 41 53 54 
3 55 43 42 
3 42 54 55 
3 56 44 43 
3 43 55 56 
3 57 45 44 
3 44 56 57 
3 58 46 45 
3 45 57 58 
3 59 47 46 
3 46 58 59 
3 48 36 47 
3 47 59 48 
3 61 49 48 
3 48 60 61 
3 62 50 49 
3 49 61 62 
3 63 51 50 
3 50 62 63 
3 64 52 51 
3 51 63 64 
3 65 53 52 
3 52 64 65 
3 66 54 53 
3 53 65 66 
3 67 55 54 
3 54 66 67 
3 68 56 55 
3 55 67 68 
3 69 57 56 
3 56 68 69 
3 70 58 57 
3 57 69 70 
3 71 59 58 
3 58 70 71 
3 60 48 59 
3 59 71 60 
3 73 61 60 
3 60 72 73 
3 74 62 61 
3 61 73 74 
3 75 63 62 
3 62 74 75 
3 76 64 63 
3 63 75 76 
3 77 65 64 
3 64 76 77 
3 78 66 65 
3 65 77 78 
3 79 67 66 
3 66 78 79 
3 80 68 67 
3 67 79 80 
3 81 69 68 
3 68 80 81 
3 82 70 69 
3 69 81 82 
3 83 71 70 
3 70 82 83 
3 72 60 71 
3 71 83 72 
3 85 73 72 
3 72 84 85 
3 86 74 73 
3 73 85 86 
3 87 75 74 
3 74 86 87 
3 88 76 75 
3 75 87 88 
3 89 77 76 
3 76 88 89 
3 90 78 77 
3 77 89 90 
3 91 79 78 
3 78 90 91 
3 92 80 79 
3 79 91 92 
3 93 81 80 
3 80 92 93 
3 94 82 81 
3 81 93 94 
3 95 83 82 
3 82 94 95 
3 84 72 83 
3 83 95 84 
3 97 85 84 
3 84 96 97 
3 98 86 85 
3 85 97 98 
3 99 87 86 
3 86 98 99 
3 100 88 87 
3 87 99 100 
3 101 89 88 
3 88 100 101 
3 102 90 89 
3 89 101 102 
3 103 91 90 
3 90 102 103 
3 104 92 91 
3 91 103 104 
3 105 93 92 
3 92 104 105 
3 106 94 93 
3 93 105 106 
3 107 95 94 
3 94 106 107 
3 96 84 95 
3 95 107 96 
3 109 97 96 
3 96 108 109 
3 110 98 97 
3 97 109 110 
3 111 99 98 
3 98 110 111 
3 112 100 99 
3 99 111 112 
3 113 101 100 
3 100 112 113 
3 114 102 101 
3 101 113 114 
3 115 103 102 
3 102 114 115 
3 116 104 103 
3 103 115 116 
3 117 105 104 
3 104 116 117 
3 118 106 105 
3 105 117 118 
3 119 107 106 
3 106 118 119 
3 108 96 107 
3 107 119 108 
3 121 109 108 
3 108 120 121 
3 122 110 109 
3 109 121 122 
3 123 111 110 
3 110 122 123 
3 124 112 111 
3 111 123 124 
3 125 113 112 
3 112 124 125 
3 126 114 113 
3 113 125 126 
3 127 115 114 
3 114 126 127 
3 128 116 115 
3 115 127 128 
3 129 117 116 
3 116 128 129 
3 130 118 117 
3 117 129 130 
3 131 119 118 
3 118 130 131 
3 120 108 119 
3 119 131 120 
3 133 121 120 
3 120 132 133 
3 134 122 121 
3 121 133 134 
3 135 123 122 
3 122 134 135 
3 136 124 123 
3 123 135 136 
3 137 125 124 
3 124 136 137 
3 138 126 125 
3 125 137 138 
3 139 127 126 
3 126 138 139 
3 140 128 127 
3 127 139 140 
3 141 129 128 
3 128 140 141 
3 142 130 129 
3 129 141 142 
3 143 131 130 
3 130 142 143 
3 132 120 131 
3 131 143 132 
3 145 133 132 
3 132 144 145 
3 146 134 133 
3 133 145 146 
3 147 135 134 
3 134 146 147 
3 148 136 135 
3 135 147 148 
3 149 137 136 
3 136 148 149 
3 150 138 137 
3 137 149 150 
3 151 139 138 
3 138 150 151 
3 152 140 139 
3 139 151 152 
3 153 141 140 
3 140 152 153 
3 154 142 141 
3 141 153 154 
3 155 143 142 
3 142 154 155 
3 144 132 143 
3 143 155 144 
3 157 145 144 
3 144 156 157 
3 158 146 145 
3 145 157 158 
3 159 147 146 
3 146 158 159 
3 160 148 147 
3 147 159 160 
3 161 149 148 
3 148 160 161 
3 162 150 149 
3 149 161 162 
3 163 151 150 
3 150 162 163 
3 164 152 151 
3 151 163 164 
3 165 153 152 
3 152 164 165 
3 166 154 153 
3 153 165 166 
3 167 155 154 
3 154 166 167 
3 156 144 155 
3 155 167 156 
3 169 157 156 
3 156 168 169 
3 170 158 157 
3 157 169 170 
3 171 159 158 
3 158 170 171 
3 172 160 159 
3 159 171 172 
3 173 161 160 
3 160 172 173 
3 174 162 161 
3 161 173 174 
3 175 163 162 
3 162 174 175 
3 176 164 163 
3 163 175 176 
3 177 165 164 
3 164 176 177 
3 178 166 165 
3 165 177 178 
3 179 167 166 
3 166 178 179 
3 168 156 167 
3 167 179 168 
3 181 169 168 
3 168 180 181 
3 182 170 169 
3 169 181 182 
3 183 171 170 
3 170 182 183 
3 184 172 171 
3 171 183 184 
3 185 173 172 
3 172 184 185 
3 186 174 173 
3 173 185 186 
3 187 175 174 
3 174 186 187 
3 188 176 175 
3 175 187 188 
3 189 177 176 
3 176 188 189 
3 190 178 177 
3 177 189 190 
3 191 179 178 
3 178 190 191 
3 180 168 179 
3 179 191 180 
3 193 181 180 
3 180 192 193 
3 194 182 181 
3 181 193 194 
3 195 183 182 
3 182 194 195 
3 196 184 183 
3 183 195 196 
3 197 185 184 
3 184 196 197 
3 198 186 185 
3 185 197 198 
3 199 187 186 
3 186 198 199 
3 200 188 187 
3 187 199 200 
3 201 189 188 
3 188 200 201 
3 202 190 189 
3 189 201 202 
3 203 191 190 
3 190 202 203 
3 192 180 191 
3 191 203 192 
3 205 193 192 
3 192 204 205 
3 206 194 193 
3 193 205 206 
3 207 195 194 
3 194 206 207 
3 208 196 195 
3 195 207 208 
3 209 197 196 
3 196 208 209 
3 210 198 197 
3 197 209 210 
3 211 199 198 
3 198 210 211 
3 212 200 199 
3 199 211 212 
3 213 201 200 
3 200 212 213 
3 214 202 201 
3 201 213 214 
3 215 203 202 
3 202 214 215 
3 204 192 203 
3 203 215 204 
3 217 205 204 
3 204 216 217 
3 218 206 205 
3 205 217 218 
3 219 207 206 
3 206 218 219 
3 220 208 207 
3 207 219 220 
3 221 209 208 
3 208 220 221 
3 222 210 209 
3 209 221 222 
3 223 211 210 
3 210 222 223 
3 224 212 211 
3 211 223 224 
3 225 213 212 
3 212 224 225 
3 226 214 213 
3 213 225 226 
3 227 215 214 
3 214 226 227 
3 216 204 215 
3 215 227 216 
3 229 217 216 
3 216 228 229 
3 230 218 217 
3 217 229 230 
3 231 219 218 
3 218 230 231 
3 232 220 219 
3 219 231 232 
3 233 221 220 
3 220 232 233 
3 234 222 221 
3 221 233 234 
3 235 223 222 
3 222 234 235 
3 236 224 223 
3 223 235 236 
3 237 225 224 
3 224 236 237 
3 238 226 225 
3 225 237 238 
3 239 227 226 
3 226 238 239 
3 228 216 227 
3 227 239 228 
3 241 229 228 
3 228 240 241 
3 242 230 229 
3 229 241 242 
3 243 231 230 
3 230 242 243 
3 244 232 231 
3 231 243 244 
3 245 233 232 
3 232 244 245 
3 246 234 233 
3 233 245 246 
3 247 235 234 
3 234 246 247 
3 248 236 235 
3 235 247 248 
3 249 237 236 
3 236 248 249 
3 250 238 237 
3 237 249 250 
3 251 239 238 
3 238 250 251 
3 240 228 239 
3 239 251 240 
3 253 241 240 
3 240 252 253 
3 254 242 241 
3 241 253 254 
3 255 243 242 
3 242 254 255 
3 256 244 243 
3 243 255 256 
3 257 245 244 
3 244 256 257 
3 258 246 245 
3 245 257 258 
3 259 247 246 
3 246 258 259 
3 260 248 247 
3 247 259 260 
3 261 249 248 
3 248 260 261 
3 262 250 249 
3 249 261 262 
3 263 251 250 
3 250 262 263 
3 252 240 251 
3 251 263 252 
3 265 253 252 
3 252 264 265 
3 266 254 253 
3 253 265 266 
3 267 255 254 
3 254 266 267 
3 268 256 255 
3 255 267 268 
3 269 257 256 
3 256 268 269 
3 270 258 257 
3 257 269 270 
3 271 259 258 
3 258 270 271 
3 272 260 259 
3 259 271 272 
3 273 261 260 
3 260 272 273 
3 274 262 261 
3 261 273 274 
3 275 263 262 
3 262 274 275 
3 264 252 263 
3 263 275 264 
3 277 265 264 
3 264 276 277 
3 278 266 265 
3 265 277 278 
3 279 267 266 
3 266 278 279 
3 280 268 267 
3 267 279 280 
3 281 269 268 
3 268 280 281 
3 282 270 269 
3 269 281 282 
3 283 271 270 
3 270 282 283 
3 284 272 271 
3 271 283 284 
3 285 273 272 
3 272 284 285 
3 286 274 273 
3 273 285 286 
3 287 275 274 
3 274 286 287 
3 276 264 275 
3 275 287 276 
3 1 277 276 
3 276 0 1 
3 2 278 277 
3 277 1 2 
3 3 279 278 
3 278 2 3 
3 4 280 279 
3 279 3 4 
3 5 281 280 
3 280 4 5 
3 6 282 281 
3 281 5 6 
3 7 283 282 
3 282 6 7 
3 8 284 283 
3 283 7 8 
3 9 285 284 
3 284 8 9 
3 10 286 285 
3 285 9 10 
3 11 287 286 
3 286 10 11 
3 0 276 287 
3 287 11 0 
3 291 288 289 
3 291 290 288 
3 293 290 291 
3 293 292 290 
3 295 292 293 
3 295 294 292 
3 297 294 295 
3 297 296 294 
3 299 296 297 
3 299 298 296 
3 301 298 299 
3 301 300 298 
3 303 300 301 
3 303 302 300 
3 305 302 303 
3 305 304 302 
3 307 304 305 
3 307 306 304 
3 309 306 307 
3 309 308 306 
3 311 308 309 
3 311 310 308 
3 313 310 311 
3 313 312 310 
3 315 312 313 
3 315 314 312 
3 317 314 315 
3 317 316 314 
3 319 316 317 
3 319 318 316 
3 321 318 319 
3 321 320 318 
3 323 320 321 
3 323 322 320 
3 325 322 323 
3 325 324 322 
3 327 324 325 
3 327 326 324 
3 329 326 327 
3 329 328 326 
3 331 328 329 
3 331 330 328 
3 333 330 331 
3 333 332 330 
3 335 332 333 
3 335 334 332 
3 337 334 335 
3 337 336 334 
3 339 336 337 
3 339 338 336 
3 341 338 339 
3 341 340 338 
3 343 340 341 
3 343 342 340 
3 345 342 343 
3 345 344 342 
3 347 344 345 
3 347 346 344 
3 349 346 347 
3 349 348 346 
3 351 348 349 
3 351 350 348 
3 289 350 351 
3 289 288 350 
