ply
format ascii 1.0
comment VCGLIB generated
element vertex 64
property float x
property float y
property float z
property float nx
property float ny
property float nz
property float texture_u
property float texture_v
element face 64
property list uchar int vertex_indices
end_header
0.2478 0.005 0 0 2.945244 1.287407e-07 1.000000 0.500000
0.1239 0.005 0 0 3.337942 1.459061e-07 0.750000 0.500000
0.2430386 0.004999998 0.04834338 3.392873e-15 2.945242 1.287406e-07 0.990393 0.402455
0.1215193 0.004999999 0.02417169 4.10856e-15 3.337941 1.45906e-07 0.745196 0.451227
0.2289373 0.004999996 0.09482895 7.762889e-16 2.945244 1.287407e-07 0.961940 0.308658
0.1144687 0.004999998 0.04741447 -5.628414e-15 3.337943 1.459062e-07 0.730970 0.404329
0.2060381 0.004999994 0.1376703 -2.956537e-14 2.945243 1.287407e-07 0.915735 0.222215
0.1030191 0.004999997 0.06883515 -1.754818e-14 3.337943 1.459062e-07 0.707867 0.361107
0.175221 0.004999992 0.175221 2.722687e-15 2.945245 1.287408e-07 0.853553 0.146447
0.08761052 0.004999996 0.08761052 6.959885e-14 3.33794 1.45906e-07 0.676777 0.323223
0.1376703 0.004999991 0.2060381 5.324474e-14 2.945243 1.287407e-07 0.777785 0.084265
0.06883514 0.004999995 0.1030191 1.441051e-13 3.337943 1.459061e-07 0.638893 0.292133
0.09482894 0.00499999 0.2289373 1.921058e-13 2.945244 1.287407e-07 0.691342 0.038060
0.04741447 0.004999995 0.1144687 4.366285e-16 3.337944 1.459063e-07 0.595671 0.269030
0.04834337 0.004999989 0.2430386 1.158099e-13 2.945242 1.287405e-07 0.597545 0.009607
0.02417169 0.004999995 0.1215193 -4.229255e-14 3.337941 1.459061e-07 0.548773 0.254804
1.517337e-17 0.004999989 0.2478 -6.901455e-15 2.945243 1.287406e-07 0.500000 0.000000
7.586686e-18 0.004999994 0.1239 -1.592518e-14 3.337942 1.45906e-07 0.500000 0.250000
-0.04834337 0.004999989 0.2430386 -9.528835e-14 2.945242 1.287405e-07 0.402455 0.009607
-0.02417169 0.004999995 0.1215193 1.619747e-13 3.337941 1.45906e-07 0.451227 0.254804
-0.09482894 0.00499999 0.2289373 -2.650051e-13 2.945244 1.287407e-07 0.308658 0.038060
-0.04741447 0.004999995 0.1144687 -6.46184e-14 3.337943 1.459061e-07 0.404329 0.269030
-0.1376703 0.004999991 0.2060381 -5.740754e-14 2.945243 1.287407e-07 0.222215 0.084265
-0.06883514 0.004999995 0.1030191 -1.778667e-13 3.337943 1.459061e-07 0.361107 0.292133
-0.175221 0.004999992 0.175221 1.433711e-14 2.945244 1.287408e-07 0.146447 0.146447
-0.08761052 0.004999996 0.08761052 -9.635782e-14 3.33794 1.459061e-07 0.323223 0.323223
-0.2060381 0.004999994 0.1376703 3.762509e-14 2.945243 1.287407e-07 0.084265 0.222215
-0.1030191 0.004999997 0.06883515 2.797115e-14 3.337943 1.459062e-07 0.292133 0.361107
-0.2289373 0.004999996 0.09482895 -5.602893e-15 2.945243 1.287407e-07 0.038060 0.308658
-0.1144687 0.004999998 0.04741447 5.888133e-16 3.337944 1.459062e-07 0.269030 0.404329
-0.2430386 0.004999998 0.04834338 3.41195e-15 2.945242 1.287407e-07 0.009607 0.402455
-0.1215193 0.004999999 0.02417169 -1.100195e-14 3.337941 1.45906e-07 0.254804 0.451227
-0.2478 0.005 3.034675e-17 7.57606e-30 2.945244 1.287407e-07 0.000000 0.500000
-0.1239 0.005 1.517337e-17 1.983114e-30 3.337942 1.459061e-07 0.250000 0.500000
-0.2430386 0.005000002 -0.04834338 3.392873e-15 2.945242 1.287406e-07 0.009607 0.597545
-0.1215193 0.005000001 -0.02417169 4.10856e-15 3.337941 1.45906e-07 0.254804 0.548773
-0.2289373 0.005000004 -0.09482895 7.762889e-16 2.945244 1.287407e-07 0.038060 0.691342
-0.1144687 0.005000002 -0.04741447 -5.628414e-15 3.337943 1.459062e-07 0.269030 0.595671
-0.2060381 0.005000006 -0.1376703 -2.956537e-14 2.945243 1.287407e-07 0.084265 0.777785
-0.1030191 0.005000003 -0.06883515 -1.754818e-14 3.337943 1.459062e-07 0.292133 0.638893
-0.175221 0.005000007 -0.175221 2.722687e-15 2.945245 1.287408e-07 0.146447 0.853553
-0.08761052 0.005000004 -0.08761052 6.959885e-14 3.33794 1.45906e-07 0.323223 0.676777
-0.1376703 0.005000009 -0.2060381 5.324474e-14 2.945243 1.287407e-07 0.222215 0.915735
-0.06883514 0.005000005 -0.1030191 1.441051e-13 3.337943 1.459061e-07 0.361107 0.707867
-0.09482894 0.00500001 -0.2289373 1.921058e-13 2.945244 1.287407e-07 0.308658 0.961940
-0.04741447 0.005000005 -0.1144687 4.366285e-16 3.337944 1.459063e-07 0.404329 0.730970
-0.04834337 0.005000011 -0.2430386 1.158099e-13 2.945242 1.287405e-07 0.402455 0.990393
-0.02417169 0.005000005 -0.1215193 -4.229255e-14 3.337941 1.459061e-07 0.451227 0.745196
-4.552011e-17 0.005000011 -0.2478 -6.901455e-15 2.945243 1.287406e-07 0.500000 1.000000
-2.276006e-17 0.005000005 -0.1239 -1.592518e-14 3.337942 1.45906e-07 0.500000 0.750000
0.04834337 0.005000011 -0.2430386 -9.528835e-14 2.945242 1.287405e-07 0.597545 0.990393
0.02417169 0.005000005 -0.1215193 1.619747e-13 3.337941 1.45906e-07 0.548773 0.745196
0.09482894 0.00500001 -0.2289373 -2.650051e-13 2.945244 1.287407e-07 0.691342 0.961940
0.04741447 0.005000005 -0.1144687 -6.46184e-14 3.337943 1.459061e-07 0.595671 0.730970
0.1376703 0.005000009 -0.2060381 -5.740754e-14 2.945243 1.287407e-07 0.777785 0.915735
0.06883514 0.005000005 -0.1030191 -1.778667e-13 3.337943 1.459061e-07 0.638893 0.707867
0.175221 0.005000007 -0.175221 1.433711e-14 2.945244 1.287408e-07 0.853553 0.853553
0.08761052 0.005000004 -0.08761052 -9.635782e-14 3.33794 1.459061e-07 0.676777 0.676777
0.2060381 0.005000006 -0.1376703 3.762509e-14 2.945243 1.287407e-07 0.915735 0.777785
0.1030191 0.005000003 -0.06883515 2.797115e-14 3.337943 1.459062e-07 0.707867 0.638893
0.2289373 0.005000004 -0.09482895 -5.602893e-15 2.945243 1.287407e-07 0.961940 0.691342
0.1144687 0.005000002 -0.04741447 5.888133e-16 3.337944 1.459062e-07 0.730970 0.595671
0.2430386 0.005000002 -0.04834338 3.41195e-15 2.945242 1.287407e-07 0.990393 0.597545
0.1215193 0.005000001 -0.02417169 -1.100195e-14 3.337941 1.45906e-07 0.745196 0.548773
3 3 0 1 
3 3 2 0 
3 5 2 3 
3 5 4 2 
3 7 4 5 
3 7 6 4 
3 9 6 7 
3 9 8 6 
3 11 8 9 
3 11 10 8 
3 13 10 11 
3 13 12 10 
3 15 12 13 
3 15 14 12 
3 17 14 15 
3 17 16 14 
3 19 16 17 
3 19 18 16 
3 21 18 19 
3 21 20 18 
3 23 20 21 
3 23 22 20 
3 25 22 23 
3 25 24 22 
3 27 24 25 
3 27 26 24 
3 29 26 27 
3 29 28 26 
3 31 28 29 
3 31 30 28 
3 33 30 31 
3 33 32 30 
3 35 32 33 
3 35 34 32 
3 37 34 35 
3 37 36 34 
3 39 36 37 
3 39 38 36 
3 41 38 39 
3 41 40 38 
3 43 40 41 
3 43 42 40 
3 45 42 43 
3 45 44 42 
3 47 44 45 
3 47 46 44 
3 49 46 47 
3 49 48 46 
3 51 48 49 
3 51 50 48 
3 53 50 51 
3 53 52 50 
3 55 52 53 
3 55 54 52 
3 57 54 55 
3 57 56 54 
3 59 56 57 
3 59 58 56 
3 61 58 59 
3 61 60 58 
3 63 60 61 
3 63 62 60 
3 1 62 63 
3 1 0 62 
