ply
format ascii 1.0
comment VCGLIB generated
element vertex 4
property float x
property float y
property float z
property float nx
property float ny
property float nz
property float texture_u
property float texture_v
element face 2
property list uchar int vertex_indices
end_header
0.5 0.125 -1.639177e-08 0 6.866168e-08 -1.570796 1.000000 0.000000
-0.5 0.125 -1.639177e-08 0 6.866168e-08 -1.570796 1.000000 1.000000
0.5 0.875 1.639177e-08 0 6.866168e-08 -1.570796 0.000000 0.000000
-0.5 0.875 1.639177e-08 0 6.866168e-08 -1.570796 0.000000 1.000000
3 1 3 0 
3 2 0 3 
