ply
format ascii 1.0
comment VCGLIB generated
element vertex 45
property float x
property float y
property float z
property float nx
property float ny
property float nz
property float texture_u
property float texture_v
element face 68
property list uchar int vertex_indices
end_header
-10.8642 22.5519 -24.8219 -0.2298981 -0.03042626 -0.972739 0.612900 0.211700
-11.4256 34.5046 -24.8219 -0.2660111 0.004783022 -0.963958 0.622700 0.500000
-3.318702 34.4954 -25.8721 -0.05507069 0.01412474 -0.998383 0.490500 0.500000
-2.210902 20.928 -25.8721 -0.04776908 -0.05816196 -0.997164 0.483000 0.207700
-10.8662 46.454 -24.8219 -0.2065471 0.03600584 -0.977774 0.632400 0.788300
-2.210902 48.0624 -25.8721 -0.03438938 0.08730335 -0.995588 0.498000 0.792300
-10.0974 13.6589 -24.2587 -0.1167251 -0.319086 -0.94051 0.618900 0.025500
-8.965801 14.9471 -24.8219 -0.1543471 -0.170735 -0.973153 0.602600 0.064200
-0.3737022 13.3313 -24.8219 -0.03046288 -0.256726 -0.966004 0.478900 0.054200
-0.02380212 11.8843 -24.2587 -0.02867238 -0.370856 -0.928248 0.478100 0.024900
-8.951301 54.0359 -24.8219 -0.1577761 0.164003 -0.973761 0.632300 0.934800
-0.3443022 56.1349 -24.8219 -0.05727569 0.232772 -0.970843 0.502100 0.945000
0.01129788 57.6725 -24.2587 -0.05642587 0.349909 -0.935083 0.502800 0.974000
14.0492 58.0041 -24.2587 2.018013e-06 0.354461 -0.935071 0.341000 0.974600
14.0633 56.5604 -24.8219 -0.009976343 0.284051 -0.958757 0.340500 0.946200
14.1375 48.9813 -25.8721 0.001597433 0.114573 -0.993414 0.337900 0.797100
14.1465 34.4942 -25.8721 0.001216493 0.02166664 -0.999765 0.333100 0.500000
14.1369 20.0092 -25.8721 1.191178e-06 -0.08148015 -0.996675 0.328300 0.202900
14.0632 12.9051 -24.8219 1.901043e-06 -0.298879 -0.954291 0.325700 0.052900
36.3126 55.3746 -24.2587 0.1774739 0.29434 -0.939078 0.062900 0.975700
35.5449 54.0421 -24.8219 0.1922259 0.177062 -0.965245 0.076300 0.939100
28.464 56.1351 -24.8219 0.04424942 0.2458721 -0.968292 0.179000 0.947500
28.0754 57.6728 -24.2587 0.03995242 0.353975 -0.934401 0.179300 0.975200
37.58829 46.4435 -24.8219 0.2649499 0.06438944 -0.96211 0.071400 0.805000
38.1837 34.5045 -24.8219 0.3195399 -8.143193e-07 -0.947573 0.071100 0.500000
31.6116 34.4957 -25.8721 0.0663321 0.005912694 -0.99778 0.175700 0.500000
30.5038 48.0624 -25.8721 0.06118561 0.08117185 -0.99482 0.177900 0.801800
37.5882 22.5621 -24.8219 0.2510609 -0.04573266 -0.96689 0.070700 0.195000
30.5038 20.928 -25.8721 0.03935871 -0.06610505 -0.997036 0.173600 0.198200
35.5653 14.947 -24.8219 0.1785129 -0.188713 -0.965671 0.075400 0.060100
28.4982 13.3312 -24.8219 0.04836171 -0.250866 -0.966813 0.172500 0.051700
36.6977 54.9876 -24.2587 0.3464719 0.1477581 -0.9263501 0.051100 0.954800
38.9378 46.1352 -24.2587 0.3953609 0.04596094 -0.9173751 0.051100 0.805600
-10.4075 13.9568 -24.2587 -0.2909151 -0.10807 -0.950626 0.631800 0.048400
-12.5125 22.8612 -24.2587 -0.3367941 -0.006633419 -0.941555 0.637600 0.212500
-12.9698 34.5063 -24.2587 -0.3345731 0.01357484 -0.942272 0.647800 0.500000
-12.5148 46.1476 -24.2587 -0.3261241 0.03656654 -0.94462 0.658000 0.787500
-10.0596 55.3506 -24.2587 -0.1260431 0.300017 -0.94557 0.651900 0.973500
14.0492 11.5519 -24.2587 2.439213e-06 -0.374315 -0.927302 0.325200 0.024400
39.4356 34.5062 -24.2587 0.3992109 -1.032063e-06 -0.916859 0.051100 0.500000
38.9376 22.8734 -24.2587 0.3959539 -0.04579896 -0.9171271 0.051100 0.194400
36.36029 13.6468 -24.2587 0.1279369 -0.337242 -0.932684 0.062300 0.023400
28.1162 11.8842 -24.2587 0.03370112 -0.372355 -0.927478 0.172200 0.023800
-10.4109 54.9968 -24.2587 -0.2681341 0.1481441 -0.951923 0.663800 0.950500
36.6985 13.9686 -24.2587 0.3131849 -0.176136 -0.933216 0.051100 0.044200
3 0 1 2 
3 0 2 3 
3 2 1 4 
3 2 4 5 
3 6 7 8 
3 6 8 9 
3 5 10 11 
3 12 13 14 
3 12 14 11 
3 15 16 2 
3 15 2 5 
3 16 17 3 
3 16 3 2 
3 17 18 8 
3 17 8 3 
3 19 20 21 
3 19 21 22 
3 23 24 25 
3 23 25 26 
3 25 24 27 
3 25 27 28 
3 28 29 30 
3 22 21 14 
3 22 14 13 
3 26 25 16 
3 26 16 15 
3 25 28 17 
3 25 17 16 
3 17 28 30 
3 17 30 18 
3 31 32 23 
3 31 23 20 
3 19 31 20 
3 5 4 10 
3 0 7 33 
3 0 33 34 
3 6 33 7 
3 28 27 29 
3 1 0 34 
3 1 34 35 
3 1 35 36 
3 1 36 4 
3 7 3 8 
3 37 12 11 
3 37 11 10 
3 15 5 11 
3 15 11 14 
3 18 38 9 
3 18 9 8 
3 20 26 21 
3 32 39 24 
3 32 24 23 
3 24 39 40 
3 24 40 27 
3 41 42 30 
3 41 30 29 
3 21 26 15 
3 21 15 14 
3 42 38 18 
3 42 18 30 
3 23 26 20 
3 43 10 4 
3 43 4 36 
3 10 43 37 
3 0 3 7 
3 44 29 27 
3 44 27 40 
3 29 44 41 
