ply
format ascii 1.0
comment VCGLIB generated
element vertex 204
property float x
property float y
property float z
property float nx
property float ny
property float nz
property float texture_u
property float texture_v
element face 68
property list uchar int vertex_indices
end_header
-10.8642 22.5519 -24.8219 -0.2298981 -0.03042626 -0.972739 0.040179 0.236803
-11.4256 34.5046 -24.8219 -0.2660111 0.004783023 -0.9639581 0.029466 0.494114
-3.318702 34.4954 -25.8721 -0.05507067 0.01412474 -0.9983826 0.184162 0.493916
-2.210902 20.928 -25.8721 -0.04776906 -0.05816194 -0.9971637 0.205301 0.201844
-10.8662 46.454 -24.8219 -0.2065471 0.03600584 -0.977774 0.040141 0.751355
-2.210902 48.0624 -25.8721 -0.03438938 0.08730335 -0.995588 0.205301 0.785980
-10.0974 13.6589 -24.2587 -0.1167251 -0.319086 -0.9405102 0.054811 0.045358
-8.965801 14.9471 -24.8219 -0.1543471 -0.170735 -0.9731529 0.076404 0.073090
-0.3737022 13.3313 -24.8219 -0.03046288 -0.256726 -0.966004 0.240359 0.038306
-0.02380212 11.8843 -24.2587 -0.02867237 -0.3708559 -0.9282477 0.247036 0.007156
-8.951301 54.0359 -24.8219 -0.157776 0.1640029 -0.9737607 0.076681 0.914575
-0.3443022 56.1349 -24.8219 -0.05727571 0.2327721 -0.9708433 0.240920 0.959761
0.01129788 57.6725 -24.2587 -0.05642585 0.349909 -0.9350828 0.247705 0.992861
14.0492 58.0041 -24.2587 2.018013e-06 0.354461 -0.9350709 0.515577 1.000000
14.0633 56.5604 -24.8219 -0.009976346 0.2840511 -0.9587573 0.515846 0.968921
14.1375 48.9813 -25.8721 0.001597432 0.114573 -0.9934136 0.517262 0.805762
14.1465 34.4942 -25.8721 0.001216492 0.02166663 -0.9997645 0.517433 0.493891
14.1369 20.0092 -25.8721 1.191178e-06 -0.08148015 -0.996675 0.517250 0.182065
14.0632 12.9051 -24.8219 1.901043e-06 -0.298879 -0.954291 0.515844 0.029131
36.3126 55.3746 -24.2587 0.1774739 0.29434 -0.9390777 0.940407 0.943393
35.5449 54.0421 -24.8219 0.1922259 0.177062 -0.9652452 0.925758 0.914708
28.464 56.1351 -24.8219 0.04424941 0.245872 -0.9682918 0.790640 0.959765
28.0754 57.6728 -24.2587 0.03995243 0.3539751 -0.9344012 0.783225 0.992868
37.58829 46.4435 -24.8219 0.2649499 0.06438944 -0.96211 0.964750 0.751129
38.1837 34.5045 -24.8219 0.3195399 -8.143192e-07 -0.9475729 0.976111 0.494112
31.6116 34.4957 -25.8721 0.06633211 0.005912695 -0.9977801 0.850702 0.493923
30.5038 48.0624 -25.8721 0.06118562 0.08117188 -0.9948204 0.829563 0.785980
37.5882 22.5621 -24.8219 0.251061 -0.04573267 -0.9668903 0.964748 0.237022
30.5038 20.928 -25.8721 0.03935872 -0.06610507 -0.9970362 0.829563 0.201844
35.5653 14.947 -24.8219 0.1785129 -0.188713 -0.9656711 0.926147 0.073088
28.4982 13.3312 -24.8219 0.04836171 -0.250866 -0.966813 0.791292 0.038304
36.6977 54.9876 -24.2587 0.3464719 0.1477581 -0.9263502 0.947755 0.935062
38.9378 46.1352 -24.2587 0.3953609 0.04596095 -0.9173753 0.990501 0.744492
-10.4075 13.9568 -24.2587 -0.290915 -0.10807 -0.9506258 0.048894 0.051772
-12.5125 22.8612 -24.2587 -0.3367941 -0.006633419 -0.941555 0.008726 0.243461
-12.9698 34.5063 -24.2587 -0.3345731 0.01357484 -0.9422721 0.000000 0.494151
-12.5148 46.1476 -24.2587 -0.326124 0.03656652 -0.9446195 0.008682 0.744759
-10.0596 55.3506 -24.2587 -0.1260431 0.3000171 -0.9455702 0.055532 0.942877
14.0492 11.5519 -24.2587 2.439212e-06 -0.3743149 -0.9273017 0.515577 0.000000
39.4356 34.5062 -24.2587 0.399211 -1.032063e-06 -0.9168591 1.000000 0.494149
38.9376 22.8734 -24.2587 0.3959541 -0.04579898 -0.9171275 0.990497 0.243724
36.36029 13.6468 -24.2587 0.1279369 -0.3372421 -0.9326843 0.941317 0.045098
28.1162 11.8842 -24.2587 0.03370113 -0.3723551 -0.9274783 0.784003 0.007154
-10.4109 54.9968 -24.2587 -0.2681341 0.1481441 -0.951923 0.048829 0.935260
36.6985 13.9686 -24.2587 0.3131848 -0.176136 -0.9332157 0.947771 0.052026
-10.8642 22.5519 -24.8219 -0.2298981 -0.03042626 -0.972739 0.040179 0.236803
-3.318702 34.4954 -25.8721 -0.05507067 0.01412474 -0.9983826 0.184162 0.493916
-3.318702 34.4954 -25.8721 -0.05507067 0.01412474 -0.9983826 0.184162 0.493916
-11.4256 34.5046 -24.8219 -0.2660111 0.004783023 -0.9639581 0.029466 0.494114
-3.318702 34.4954 -25.8721 -0.05507067 0.01412474 -0.9983826 0.184162 0.493916
-10.8662 46.454 -24.8219 -0.2065471 0.03600584 -0.977774 0.040141 0.751355
-10.0974 13.6589 -24.2587 -0.1167251 -0.319086 -0.9405102 0.054811 0.045358
-0.3737022 13.3313 -24.8219 -0.03046288 -0.256726 -0.966004 0.240359 0.038306
-2.210902 48.0624 -25.8721 -0.03438938 0.08730335 -0.995588 0.205301 0.785980
0.01129788 57.6725 -24.2587 -0.05642585 0.349909 -0.9350828 0.247705 0.992861
14.0633 56.5604 -24.8219 -0.009976346 0.2840511 -0.9587573 0.515846 0.968921
-0.3443022 56.1349 -24.8219 -0.05727571 0.2327721 -0.9708433 0.240920 0.959761
-3.318702 34.4954 -25.8721 -0.05507067 0.01412474 -0.9983826 0.184162 0.493916
14.1375 48.9813 -25.8721 0.001597432 0.114573 -0.9934136 0.517262 0.805762
-3.318702 34.4954 -25.8721 -0.05507067 0.01412474 -0.9983826 0.184162 0.493916
-2.210902 48.0624 -25.8721 -0.03438938 0.08730335 -0.995588 0.205301 0.785980
14.1465 34.4942 -25.8721 0.001216492 0.02166663 -0.9997645 0.517433 0.493891
-2.210902 20.928 -25.8721 -0.04776906 -0.05816194 -0.9971637 0.205301 0.201844
14.1465 34.4942 -25.8721 0.001216492 0.02166663 -0.9997645 0.517433 0.493891
-2.210902 20.928 -25.8721 -0.04776906 -0.05816194 -0.9971637 0.205301 0.201844
-3.318702 34.4954 -25.8721 -0.05507067 0.01412474 -0.9983826 0.184162 0.493916
14.1369 20.0092 -25.8721 1.191178e-06 -0.08148015 -0.996675 0.517250 0.182065
-0.3737022 13.3313 -24.8219 -0.03046288 -0.256726 -0.966004 0.240359 0.038306
14.1369 20.0092 -25.8721 1.191178e-06 -0.08148015 -0.996675 0.517250 0.182065
-0.3737022 13.3313 -24.8219 -0.03046288 -0.256726 -0.966004 0.240359 0.038306
-2.210902 20.928 -25.8721 -0.04776906 -0.05816194 -0.9971637 0.205301 0.201844
36.3126 55.3746 -24.2587 0.1774739 0.29434 -0.9390777 0.940407 0.943393
28.464 56.1351 -24.8219 0.04424941 0.245872 -0.9682918 0.790640 0.959765
37.58829 46.4435 -24.8219 0.2649499 0.06438944 -0.96211 0.964750 0.751129
31.6116 34.4957 -25.8721 0.06633211 0.005912695 -0.9977801 0.850702 0.493923
31.6116 34.4957 -25.8721 0.06633211 0.005912695 -0.9977801 0.850702 0.493923
38.1837 34.5045 -24.8219 0.3195399 -8.143192e-07 -0.9475729 0.976111 0.494112
31.6116 34.4957 -25.8721 0.06633211 0.005912695 -0.9977801 0.850702 0.493923
37.5882 22.5621 -24.8219 0.251061 -0.04573267 -0.9668903 0.964748 0.237022
30.5038 20.928 -25.8721 0.03935872 -0.06610507 -0.9970362 0.829563 0.201844
28.0754 57.6728 -24.2587 0.03995243 0.3539751 -0.9344012 0.783225 0.992868
28.464 56.1351 -24.8219 0.04424941 0.245872 -0.9682918 0.790640 0.959765
14.0633 56.5604 -24.8219 -0.009976346 0.2840511 -0.9587573 0.515846 0.968921
28.0754 57.6728 -24.2587 0.03995243 0.3539751 -0.9344012 0.783225 0.992868
14.0633 56.5604 -24.8219 -0.009976346 0.2840511 -0.9587573 0.515846 0.968921
14.0492 58.0041 -24.2587 2.018013e-06 0.354461 -0.9350709 0.515577 1.000000
30.5038 48.0624 -25.8721 0.06118562 0.08117188 -0.9948204 0.829563 0.785980
31.6116 34.4957 -25.8721 0.06633211 0.005912695 -0.9977801 0.850702 0.493923
14.1465 34.4942 -25.8721 0.001216492 0.02166663 -0.9997645 0.517433 0.493891
30.5038 48.0624 -25.8721 0.06118562 0.08117188 -0.9948204 0.829563 0.785980
14.1465 34.4942 -25.8721 0.001216492 0.02166663 -0.9997645 0.517433 0.493891
14.1375 48.9813 -25.8721 0.001597432 0.114573 -0.9934136 0.517262 0.805762
31.6116 34.4957 -25.8721 0.06633211 0.005912695 -0.9977801 0.850702 0.493923
30.5038 20.928 -25.8721 0.03935872 -0.06610507 -0.9970362 0.829563 0.201844
14.1369 20.0092 -25.8721 1.191178e-06 -0.08148015 -0.996675 0.517250 0.182065
31.6116 34.4957 -25.8721 0.06633211 0.005912695 -0.9977801 0.850702 0.493923
14.1369 20.0092 -25.8721 1.191178e-06 -0.08148015 -0.996675 0.517250 0.182065
14.1465 34.4942 -25.8721 0.001216492 0.02166663 -0.9997645 0.517433 0.493891
14.1369 20.0092 -25.8721 1.191178e-06 -0.08148015 -0.996675 0.517250 0.182065
30.5038 20.928 -25.8721 0.03935872 -0.06610507 -0.9970362 0.829563 0.201844
28.4982 13.3312 -24.8219 0.04836171 -0.250866 -0.966813 0.791292 0.038304
14.1369 20.0092 -25.8721 1.191178e-06 -0.08148015 -0.996675 0.517250 0.182065
28.4982 13.3312 -24.8219 0.04836171 -0.250866 -0.966813 0.791292 0.038304
14.0632 12.9051 -24.8219 1.901043e-06 -0.298879 -0.954291 0.515844 0.029131
37.58829 46.4435 -24.8219 0.2649499 0.06438944 -0.96211 0.964750 0.751129
36.6977 54.9876 -24.2587 0.3464719 0.1477581 -0.9263502 0.947755 0.935062
37.58829 46.4435 -24.8219 0.2649499 0.06438944 -0.96211 0.964750 0.751129
35.5449 54.0421 -24.8219 0.1922259 0.177062 -0.9652452 0.925758 0.914708
36.3126 55.3746 -24.2587 0.1774739 0.29434 -0.9390777 0.940407 0.943393
36.6977 54.9876 -24.2587 0.3464719 0.1477581 -0.9263502 0.947755 0.935062
35.5449 54.0421 -24.8219 0.1922259 0.177062 -0.9652452 0.925758 0.914708
-2.210902 48.0624 -25.8721 -0.03438938 0.08730335 -0.995588 0.205301 0.785980
-10.8662 46.454 -24.8219 -0.2065471 0.03600584 -0.977774 0.040141 0.751355
-8.951301 54.0359 -24.8219 -0.157776 0.1640029 -0.9737607 0.076681 0.914575
-10.8642 22.5519 -24.8219 -0.2298981 -0.03042626 -0.972739 0.040179 0.236803
-8.965801 14.9471 -24.8219 -0.1543471 -0.170735 -0.9731529 0.076404 0.073090
-10.8642 22.5519 -24.8219 -0.2298981 -0.03042626 -0.972739 0.040179 0.236803
-10.4075 13.9568 -24.2587 -0.290915 -0.10807 -0.9506258 0.048894 0.051772
-10.0974 13.6589 -24.2587 -0.1167251 -0.319086 -0.9405102 0.054811 0.045358
-10.4075 13.9568 -24.2587 -0.290915 -0.10807 -0.9506258 0.048894 0.051772
-8.965801 14.9471 -24.8219 -0.1543471 -0.170735 -0.9731529 0.076404 0.073090
30.5038 20.928 -25.8721 0.03935872 -0.06610507 -0.9970362 0.829563 0.201844
37.5882 22.5621 -24.8219 0.251061 -0.04573267 -0.9668903 0.964748 0.237022
35.5653 14.947 -24.8219 0.1785129 -0.188713 -0.9656711 0.926147 0.073088
-11.4256 34.5046 -24.8219 -0.2660111 0.004783023 -0.9639581 0.029466 0.494114
-10.8642 22.5519 -24.8219 -0.2298981 -0.03042626 -0.972739 0.040179 0.236803
-12.5125 22.8612 -24.2587 -0.3367941 -0.006633419 -0.941555 0.008726 0.243461
-11.4256 34.5046 -24.8219 -0.2660111 0.004783023 -0.9639581 0.029466 0.494114
-12.5125 22.8612 -24.2587 -0.3367941 -0.006633419 -0.941555 0.008726 0.243461
-11.4256 34.5046 -24.8219 -0.2660111 0.004783023 -0.9639581 0.029466 0.494114
-12.9698 34.5063 -24.2587 -0.3345731 0.01357484 -0.9422721 0.000000 0.494151
-11.4256 34.5046 -24.8219 -0.2660111 0.004783023 -0.9639581 0.029466 0.494114
-12.5148 46.1476 -24.2587 -0.326124 0.03656652 -0.9446195 0.008682 0.744759
-10.8662 46.454 -24.8219 -0.2065471 0.03600584 -0.977774 0.040141 0.751355
-8.965801 14.9471 -24.8219 -0.1543471 -0.170735 -0.9731529 0.076404 0.073090
-2.210902 20.928 -25.8721 -0.04776906 -0.05816194 -0.9971637 0.205301 0.201844
-0.3737022 13.3313 -24.8219 -0.03046288 -0.256726 -0.966004 0.240359 0.038306
0.01129788 57.6725 -24.2587 -0.05642585 0.349909 -0.9350828 0.247705 0.992861
-0.3443022 56.1349 -24.8219 -0.05727571 0.2327721 -0.9708433 0.240920 0.959761
-10.0596 55.3506 -24.2587 -0.1260431 0.3000171 -0.9455702 0.055532 0.942877
-0.3443022 56.1349 -24.8219 -0.05727571 0.2327721 -0.9708433 0.240920 0.959761
-8.951301 54.0359 -24.8219 -0.157776 0.1640029 -0.9737607 0.076681 0.914575
14.1375 48.9813 -25.8721 0.001597432 0.114573 -0.9934136 0.517262 0.805762
-2.210902 48.0624 -25.8721 -0.03438938 0.08730335 -0.995588 0.205301 0.785980
-0.3443022 56.1349 -24.8219 -0.05727571 0.2327721 -0.9708433 0.240920 0.959761
14.1375 48.9813 -25.8721 0.001597432 0.114573 -0.9934136 0.517262 0.805762
-0.3443022 56.1349 -24.8219 -0.05727571 0.2327721 -0.9708433 0.240920 0.959761
14.0633 56.5604 -24.8219 -0.009976346 0.2840511 -0.9587573 0.515846 0.968921
14.0632 12.9051 -24.8219 1.901043e-06 -0.298879 -0.954291 0.515844 0.029131
-0.02380212 11.8843 -24.2587 -0.02867237 -0.3708559 -0.9282477 0.247036 0.007156
14.0632 12.9051 -24.8219 1.901043e-06 -0.298879 -0.954291 0.515844 0.029131
-0.02380212 11.8843 -24.2587 -0.02867237 -0.3708559 -0.9282477 0.247036 0.007156
-0.3737022 13.3313 -24.8219 -0.03046288 -0.256726 -0.966004 0.240359 0.038306
35.5449 54.0421 -24.8219 0.1922259 0.177062 -0.9652452 0.925758 0.914708
30.5038 48.0624 -25.8721 0.06118562 0.08117188 -0.9948204 0.829563 0.785980
28.464 56.1351 -24.8219 0.04424941 0.245872 -0.9682918 0.790640 0.959765
38.9378 46.1352 -24.2587 0.3953609 0.04596095 -0.9173753 0.990501 0.744492
38.1837 34.5045 -24.8219 0.3195399 -8.143192e-07 -0.9475729 0.976111 0.494112
38.9378 46.1352 -24.2587 0.3953609 0.04596095 -0.9173753 0.990501 0.744492
38.1837 34.5045 -24.8219 0.3195399 -8.143192e-07 -0.9475729 0.976111 0.494112
37.58829 46.4435 -24.8219 0.2649499 0.06438944 -0.96211 0.964750 0.751129
38.1837 34.5045 -24.8219 0.3195399 -8.143192e-07 -0.9475729 0.976111 0.494112
39.4356 34.5062 -24.2587 0.399211 -1.032063e-06 -0.9168591 1.000000 0.494149
38.1837 34.5045 -24.8219 0.3195399 -8.143192e-07 -0.9475729 0.976111 0.494112
38.9376 22.8734 -24.2587 0.3959541 -0.04579898 -0.9171275 0.990497 0.243724
37.5882 22.5621 -24.8219 0.251061 -0.04573267 -0.9668903 0.964748 0.237022
28.4982 13.3312 -24.8219 0.04836171 -0.250866 -0.966813 0.791292 0.038304
36.36029 13.6468 -24.2587 0.1279369 -0.3372421 -0.9326843 0.941317 0.045098
28.4982 13.3312 -24.8219 0.04836171 -0.250866 -0.966813 0.791292 0.038304
35.5653 14.947 -24.8219 0.1785129 -0.188713 -0.9656711 0.926147 0.073088
28.464 56.1351 -24.8219 0.04424941 0.245872 -0.9682918 0.790640 0.959765
30.5038 48.0624 -25.8721 0.06118562 0.08117188 -0.9948204 0.829563 0.785980
14.1375 48.9813 -25.8721 0.001597432 0.114573 -0.9934136 0.517262 0.805762
28.464 56.1351 -24.8219 0.04424941 0.245872 -0.9682918 0.790640 0.959765
14.1375 48.9813 -25.8721 0.001597432 0.114573 -0.9934136 0.517262 0.805762
14.0633 56.5604 -24.8219 -0.009976346 0.2840511 -0.9587573 0.515846 0.968921
28.1162 11.8842 -24.2587 0.03370113 -0.3723551 -0.9274783 0.784003 0.007154
14.0492 11.5519 -24.2587 2.439212e-06 -0.3743149 -0.9273017 0.515577 0.000000
14.0632 12.9051 -24.8219 1.901043e-06 -0.298879 -0.954291 0.515844 0.029131
28.1162 11.8842 -24.2587 0.03370113 -0.3723551 -0.9274783 0.784003 0.007154
14.0632 12.9051 -24.8219 1.901043e-06 -0.298879 -0.954291 0.515844 0.029131
28.4982 13.3312 -24.8219 0.04836171 -0.250866 -0.966813 0.791292 0.038304
37.58829 46.4435 -24.8219 0.2649499 0.06438944 -0.96211 0.964750 0.751129
30.5038 48.0624 -25.8721 0.06118562 0.08117188 -0.9948204 0.829563 0.785980
35.5449 54.0421 -24.8219 0.1922259 0.177062 -0.9652452 0.925758 0.914708
-8.951301 54.0359 -24.8219 -0.157776 0.1640029 -0.9737607 0.076681 0.914575
-10.8662 46.454 -24.8219 -0.2065471 0.03600584 -0.977774 0.040141 0.751355
-10.4109 54.9968 -24.2587 -0.2681341 0.1481441 -0.951923 0.048829 0.935260
-10.8662 46.454 -24.8219 -0.2065471 0.03600584 -0.977774 0.040141 0.751355
-12.5148 46.1476 -24.2587 -0.326124 0.03656652 -0.9446195 0.008682 0.744759
-8.951301 54.0359 -24.8219 -0.157776 0.1640029 -0.9737607 0.076681 0.914575
-10.4109 54.9968 -24.2587 -0.2681341 0.1481441 -0.951923 0.048829 0.935260
-10.0596 55.3506 -24.2587 -0.1260431 0.3000171 -0.9455702 0.055532 0.942877
-10.8642 22.5519 -24.8219 -0.2298981 -0.03042626 -0.972739 0.040179 0.236803
-2.210902 20.928 -25.8721 -0.04776906 -0.05816194 -0.9971637 0.205301 0.201844
-8.965801 14.9471 -24.8219 -0.1543471 -0.170735 -0.9731529 0.076404 0.073090
35.5653 14.947 -24.8219 0.1785129 -0.188713 -0.9656711 0.926147 0.073088
37.5882 22.5621 -24.8219 0.251061 -0.04573267 -0.9668903 0.964748 0.237022
36.6985 13.9686 -24.2587 0.3131848 -0.176136 -0.9332157 0.947771 0.052026
37.5882 22.5621 -24.8219 0.251061 -0.04573267 -0.9668903 0.964748 0.237022
38.9376 22.8734 -24.2587 0.3959541 -0.04579898 -0.9171275 0.990497 0.243724
35.5653 14.947 -24.8219 0.1785129 -0.188713 -0.9656711 0.926147 0.073088
36.6985 13.9686 -24.2587 0.3131848 -0.176136 -0.9332157 0.947771 0.052026
36.36029 13.6468 -24.2587 0.1279369 -0.3372421 -0.9326843 0.941317 0.045098
3 0 1 2 
3 45 46 3 
3 47 48 4 
3 49 50 5 
3 6 7 8 
3 51 52 9 
3 53 10 11 
3 12 13 14 
3 54 55 56 
3 15 16 57 
3 58 59 60 
3 61 17 62 
3 63 64 65 
3 66 18 67 
3 68 69 70 
3 19 20 21 
3 71 72 22 
3 23 24 25 
3 73 74 26 
3 75 76 27 
3 77 78 28 
3 79 29 30 
3 80 81 82 
3 83 84 85 
3 86 87 88 
3 89 90 91 
3 92 93 94 
3 95 96 97 
3 98 99 100 
3 101 102 103 
3 31 32 104 
3 105 106 107 
3 108 109 110 
3 111 112 113 
3 114 115 33 
3 116 117 34 
3 118 119 120 
3 121 122 123 
3 124 125 126 
3 127 128 35 
3 129 130 36 
3 131 132 133 
3 134 135 136 
3 37 137 138 
3 139 140 141 
3 142 143 144 
3 145 146 147 
3 148 38 149 
3 150 151 152 
3 153 154 155 
3 156 39 157 
3 158 159 160 
3 161 162 40 
3 163 164 165 
3 41 42 166 
3 167 168 169 
3 170 171 172 
3 173 174 175 
3 176 177 178 
3 179 180 181 
3 182 183 184 
3 43 185 186 
3 187 188 189 
3 190 191 192 
3 193 194 195 
3 44 196 197 
3 198 199 200 
3 201 202 203 
